<?xml version="1.0" encoding="UTF-8"?>
<svg xmlns="http://www.w3.org/2000/svg" xmlns:xlink="http://www.w3.org/1999/xlink" width="227pt" height="150pt" viewBox="0 0 227 150" version="1.1">
<g id="surface1">
<path style="fill-rule:nonzero;fill:rgb(100%,100%,100%);fill-opacity:1;stroke-width:3;stroke-linecap:butt;stroke-linejoin:miter;stroke:rgb(4.705882%,45.098039%,46.666667%);stroke-opacity:1;stroke-miterlimit:10;" d="M 191.618788 65.18953 L 107.890005 104.808877 C 103.855139 106.717309 99.187837 106.773647 95.110572 104.960284 L 14.611096 69.108507 C 9.300759 66.700079 5.866529 61.436044 5.806466 55.605112 C 5.746402 49.774181 9.071104 44.436203 14.328443 41.918621 L 86.429602 7.999925 C 93.457054 4.697139 101.59745 4.742913 108.589571 8.119642 L 196.339087 50.781214 C 206.320259 55.819899 201.33144 60.819852 191.618788 65.18953 Z M 191.618788 65.18953 " transform="matrix(1.105597,0,0,1.109385,0.0491377,0)"/>
<path style="fill-rule:nonzero;fill:rgb(95.294118%,93.72549%,89.411765%);fill-opacity:1;stroke-width:3;stroke-linecap:butt;stroke-linejoin:miter;stroke:rgb(0.392157%,0.392157%,0.392157%);stroke-opacity:1;stroke-miterlimit:10;" d="M 31.171008 34.820096 L 47.140883 26.820171 L 59.118289 22.320213 L 67.901721 19.320241 L 78.08075 18.820246 L 85.058737 19.09137 L 92.411239 21.820218 L 105.03168 26.320176 L 110.0205 30.320138 L 116.171728 37.320073 L 117.998371 39.320054 L 116.998487 44.320007 L 113.009551 49.31996 L 110.0205 52.819927 L 108.020732 54.319913 L 102.759859 54.080479 L 91.549149 55.819899 L 86.560329 58.819871 L 82.571394 61.819843 L 79.578809 64.819815 L 78.578925 68.819777 L 81.069801 73.319735 L 74.589989 70.319763 L 69.099461 68.819777 L 64.608817 68.819777 L 60.121706 72.319745 L 56.118638 73.319735 L 51.631527 74.819721 L 50.299527 78.118986 L 49.638826 81.340787 L 48.140767 83.358373 L 9.721205 65.819805 L 7.219729 62.819834 L 5.72167 55.819899 L 6.078519 52.319932 L 7.219729 49.31996 L 8.721321 46.760125 L 11.491317 43.820012 L 16.759256 41.020742 Z M 31.171008 34.820096 " transform="matrix(1.105597,0,0,1.109385,0.0491377,0)"/>
<path style="fill:none;stroke-width:3;stroke-linecap:butt;stroke-linejoin:miter;stroke:rgb(0.392157%,0.392157%,0.392157%);stroke-opacity:1;stroke-miterlimit:10;" d="M 107.999533 54.319913 C 107.999533 54.319913 118.998255 43.320016 117.998371 39.320054 C 117.118614 35.788397 106.151691 27.598333 103.568953 25.711027 C 103.215637 25.450466 102.826989 25.2392 102.420676 25.080751 L 88.708489 19.608971 C 88.220914 19.418832 87.705072 19.302636 87.178632 19.260383 L 75.349618 18.341377 C 75.148228 18.323772 74.943305 18.323772 74.738382 18.341377 C 73.109596 18.401236 65.739428 18.9294 56.118638 23.34133 C 45.900745 27.999737 22.680829 38.710905 19.550451 40.161595 C 19.338461 40.249623 19.140605 40.330608 18.921549 40.40103 C 16.999511 40.999616 6.721553 42.820021 5.72167 55.819899 C 5.499081 58.728323 9.721205 65.048686 9.721205 65.819805 L 42.869295 82.819646 C 44.487481 83.576681 46.381254 83.453443 47.88638 82.492184 C 49.395038 81.530926 50.30306 79.865448 50.299527 78.080254 " transform="matrix(1.105597,0,0,1.109385,0.0491377,0)"/>
<path style=" stroke:none;fill-rule:nonzero;fill:rgb(10.588235%,36.078431%,32.941176%);fill-opacity:1;" d="M 172.144531 34.28125 L 171.882812 40.847656 L 213.816406 60.816406 L 213.132812 65.253906 L 210.675781 67.785156 L 208.300781 70.746094 L 211.617188 71.855469 L 219.785156 67.785156 C 219.785156 67.785156 227.957031 62.449219 218.679688 57.167969 C 209.40625 51.886719 172.144531 34.28125 172.144531 34.28125 Z M 172.144531 34.28125 "/>
<path style="fill-rule:nonzero;fill:rgb(28.235294%,74.509804%,70.588235%);fill-opacity:1;stroke-width:3;stroke-linecap:butt;stroke-linejoin:miter;stroke:rgb(0.392157%,0.392157%,0.392157%);stroke-opacity:1;stroke-miterlimit:10;" d="M 3.728969 64.819815 L 3.329722 84.259773 C 3.269658 87.333688 5.022104 90.157605 7.799167 91.470973 L 87.380022 128.9002 C 96.043326 132.970584 106.056296 133.037485 114.769064 129.079776 L 194.689102 92.080123 C 198.455449 90.393519 200.910994 86.685807 200.999323 82.559085 L 201.380904 59.819862 L 107.688615 105.639855 C 102.876454 107.967298 97.276398 108.020114 92.418305 105.780698 Z M 3.728969 64.819815 " transform="matrix(1.105597,0,0,1.109385,0.0491377,0)"/>
<path style="fill-rule:nonzero;fill:rgb(91.764706%,28.627451%,44.705882%);fill-opacity:1;stroke-width:3;stroke-linecap:butt;stroke-linejoin:miter;stroke:rgb(0.392157%,0.392157%,0.392157%);stroke-opacity:1;stroke-miterlimit:10;" d="M 105.10941 98.118798 L 115.281372 93.868838 C 115.945606 93.590672 116.387251 92.946312 116.411983 92.224487 C 116.436715 91.502663 116.037468 90.833655 115.3909 90.509715 L 75.999719 70.79159 C 71.611537 68.594427 66.467259 68.499358 62.001347 70.531029 L 51.698657 75.221126 C 50.8401 75.611967 50.281861 76.460551 50.257129 77.404204 C 50.232397 78.351378 50.751771 79.224609 51.589129 79.661225 L 85.369655 97.270215 C 91.496151 100.467368 98.728526 100.780745 105.10941 98.118798 Z M 105.10941 98.118798 " transform="matrix(1.105597,0,0,1.109385,0.0491377,0)"/>
<path style=" stroke:none;fill-rule:nonzero;fill:rgb(0.392157%,0.392157%,0.392157%);fill-opacity:1;" d="M 75.339844 104.636719 L 75.339844 97.980469 L 97.652344 85.34375 L 109.746094 91.425781 L 86.109375 103.550781 L 86.375 110.183594 Z M 75.339844 104.636719 "/>
<path style="fill:none;stroke-width:3;stroke-linecap:butt;stroke-linejoin:miter;stroke:rgb(0.392157%,0.392157%,0.392157%);stroke-opacity:1;stroke-miterlimit:10;" d="M 116.500312 92.319557 L 116.500312 101.319473 " transform="matrix(1.105597,0,0,1.109385,0.0491377,0)"/>
<path style=" stroke:none;fill-rule:nonzero;fill:rgb(15.294118%,11.372549%,12.941176%);fill-opacity:1;" d="M 128.488281 38.628906 L 130.507812 43.621094 L 129.402344 49.167969 L 129.402344 51.386719 L 136.027344 46.949219 L 142.40625 45.605469 L 147.058594 46.949219 L 151.472656 46.949219 L 154.789062 45.007812 L 159.199219 41.402344 L 168.023438 36.964844 L 169.128906 34.746094 L 168.585938 32.703125 L 166.917969 32.527344 L 163.167969 36.410156 L 159.199219 39.183594 L 152.578125 40.847656 L 145.953125 41.402344 L 139.886719 41.246094 L 132.167969 39.914062 Z M 128.488281 38.628906 "/>
<path style=" stroke:none;fill-rule:nonzero;fill:rgb(10.588235%,36.078431%,32.941176%);fill-opacity:1;" d="M 153.128906 47.503906 L 170.785156 36.410156 L 171.171875 40.847656 L 166.199219 45.25 L 164.90625 49.722656 L 165.269531 53.050781 Z M 153.128906 47.503906 "/>
<path style="fill-rule:nonzero;fill:rgb(95.686275%,58.039216%,38.823529%);fill-opacity:1;stroke-width:3;stroke-linecap:butt;stroke-linejoin:miter;stroke:rgb(0.392157%,0.392157%,0.392157%);stroke-opacity:1;stroke-miterlimit:10;" d="M 79.578809 63.819824 L 94.580598 54.819909 C 106.04923 52.319932 117.330604 56.591019 123.930543 61.270552 C 126.559213 63.143774 128.965294 65.316289 131.099321 67.738802 C 134.300363 71.358486 140.409193 77.890115 143.981216 79.319679 C 146.800676 80.383049 148.369399 83.400627 147.620369 86.319613 L 129.180816 95.231502 C 121.340738 94.178695 113.998836 82.319651 113.998836 82.319651 C 100.000463 60.319857 79.070034 64.31982 79.070034 64.31982 L 79.070034 72.319745 " transform="matrix(1.105597,0,0,1.109385,0.0491377,0)"/>
<path style="fill:none;stroke-width:3;stroke-linecap:round;stroke-linejoin:miter;stroke:rgb(0.392157%,0.392157%,0.392157%);stroke-opacity:1;stroke-miterlimit:10;" d="M 27.680248 65.819805 C 27.680248 65.819805 50.681108 77.819693 67.601402 64.819815 " transform="matrix(1.105597,0,0,1.109385,0.0491377,0)"/>
<path style=" stroke:none;fill-rule:nonzero;fill:rgb(15.294118%,11.372549%,12.941176%);fill-opacity:1;" d="M 76.445312 19.214844 L 87.480469 12.746094 L 89.679688 12.003906 L 91.890625 16.785156 L 96.300781 21.433594 L 100.859375 22.453125 L 106.230469 23.652344 L 117.265625 23.652344 L 127.191406 21.253906 L 130.507812 19.214844 L 134.921875 16.996094 L 139.886719 19.214844 L 141.542969 21.433594 L 136.027344 22.066406 L 129.957031 24.207031 L 125.445312 26.425781 L 121.6875 31.417969 L 121.144531 33.636719 L 116.171875 29.199219 L 111.195312 26.425781 L 106.230469 24.996094 L 95.195312 22.820312 L 88.585938 21.433594 Z M 76.445312 19.214844 "/>
<path style=" stroke:none;fill-rule:nonzero;fill:rgb(0.392157%,0.392157%,0.392157%);fill-opacity:1;" d="M 109.546875 90.214844 L 109.546875 76.039062 L 132.953125 65.429688 L 141.863281 71.953125 L 118.777344 82.828125 L 118.703125 95.929688 Z M 109.546875 90.214844 "/>
<path style="fill:none;stroke-width:3;stroke-linecap:butt;stroke-linejoin:round;stroke:rgb(0.392157%,0.392157%,0.392157%);stroke-opacity:1;stroke-miterlimit:4;" d="M 137.459006 41.82003 L 155.658304 30.890555 L 155.421582 35.820087 " transform="matrix(1.105597,0,0,1.109385,0.0491377,0)"/>
<path style=" stroke:none;fill-rule:nonzero;fill:rgb(99.607843%,88.627451%,40%);fill-opacity:1;" d="M 193.949219 63.035156 L 201.125 62.589844 L 209.21875 61.4375 L 212.941406 60.640625 L 214.371094 61.835938 L 212.480469 66.363281 L 206.882812 70.957031 L 202.097656 73.53125 L 197.464844 75.039062 L 197.042969 70.757812 L 197 66.917969 L 193.121094 65.574219 Z M 193.949219 63.035156 "/>
<path style="fill-rule:nonzero;fill:rgb(98.823529%,83.529412%,18.823529%);fill-opacity:1;stroke-width:3;stroke-linecap:butt;stroke-linejoin:round;stroke:rgb(0.392157%,0.392157%,0.392157%);stroke-opacity:1;stroke-miterlimit:4;" d="M 155.919758 36.320082 L 193.851744 54.319913 C 193.851744 54.319913 174.479438 60.179013 157.919525 52.319932 C 138.999463 43.320016 155.919758 36.320082 155.919758 36.320082 Z M 155.919758 36.320082 " transform="matrix(1.105597,0,0,1.109385,0.0491377,0)"/>
<path style="fill:none;stroke-width:3;stroke-linecap:butt;stroke-linejoin:miter;stroke:rgb(0.392157%,0.392157%,0.392157%);stroke-opacity:1;stroke-miterlimit:10;" d="M 157.919525 52.319932 L 171.889633 45.319998 L 172.808254 56.418485 " transform="matrix(1.105597,0,0,1.109385,0.0491377,0)"/>
<path style="fill:none;stroke-width:3;stroke-linecap:butt;stroke-linejoin:miter;stroke:rgb(0.392157%,0.392157%,0.392157%);stroke-opacity:1;stroke-miterlimit:10;" d="M 148.938237 43.87987 L 171.391457 44.820002 " transform="matrix(1.105597,0,0,1.109385,0.0491377,0)"/>
<path style="fill:none;stroke-width:3;stroke-linecap:butt;stroke-linejoin:miter;stroke:rgb(0.392157%,0.392157%,0.392157%);stroke-opacity:1;stroke-miterlimit:10;" d="M 137.999579 70.319763 L 150.001718 76.319707 C 153.905857 78.752783 158.587292 79.608409 163.099135 78.721093 " transform="matrix(1.105597,0,0,1.109385,0.0491377,0)"/>
<path style=" stroke:none;fill-rule:nonzero;fill:rgb(0.392157%,0.392157%,0.392157%);fill-opacity:1;" d="M 11.347656 56.378906 C 11.347656 57.296875 10.605469 58.042969 9.691406 58.042969 C 8.773438 58.042969 8.03125 57.296875 8.03125 56.378906 C 8.03125 55.460938 8.773438 54.714844 9.691406 54.714844 C 10.605469 54.714844 11.347656 55.460938 11.347656 56.378906 Z M 11.347656 56.378906 "/>
<path style=" stroke:none;fill-rule:nonzero;fill:rgb(0.392157%,0.392157%,0.392157%);fill-opacity:1;" d="M 13.546875 61.925781 C 13.546875 62.84375 12.804688 63.589844 11.890625 63.589844 C 10.972656 63.589844 10.230469 62.84375 10.230469 61.925781 C 10.230469 61.007812 10.972656 60.261719 11.890625 60.261719 C 12.804688 60.261719 13.546875 61.007812 13.546875 61.925781 Z M 13.546875 61.925781 "/>
<path style=" stroke:none;fill-rule:nonzero;fill:rgb(0.392157%,0.392157%,0.392157%);fill-opacity:1;" d="M 16.867188 67.472656 C 16.867188 68.390625 16.121094 69.136719 15.207031 69.136719 C 14.289062 69.136719 13.546875 68.390625 13.546875 67.472656 C 13.546875 66.554688 14.289062 65.808594 15.207031 65.808594 C 16.121094 65.808594 16.867188 66.554688 16.867188 67.472656 Z M 16.867188 67.472656 "/>
<path style=" stroke:none;fill-rule:nonzero;fill:rgb(0.392157%,0.392157%,0.392157%);fill-opacity:1;" d="M 19.066406 73.019531 C 19.066406 73.9375 18.324219 74.683594 17.40625 74.683594 C 16.492188 74.683594 15.75 73.9375 15.75 73.019531 C 15.75 72.101562 16.492188 71.355469 17.40625 71.355469 C 18.324219 71.355469 19.066406 72.101562 19.066406 73.019531 Z M 19.066406 73.019531 "/>
<path style=" stroke:none;fill-rule:nonzero;fill:rgb(0.392157%,0.392157%,0.392157%);fill-opacity:1;" d="M 16.867188 54.160156 C 16.867188 55.078125 16.121094 55.824219 15.207031 55.824219 C 14.289062 55.824219 13.546875 55.078125 13.546875 54.160156 C 13.546875 53.242188 14.289062 52.496094 15.207031 52.496094 C 16.121094 52.496094 16.867188 53.242188 16.867188 54.160156 Z M 16.867188 54.160156 "/>
<path style=" stroke:none;fill-rule:nonzero;fill:rgb(0.392157%,0.392157%,0.392157%);fill-opacity:1;" d="M 22.382812 51.941406 C 22.382812 52.859375 21.640625 53.605469 20.722656 53.605469 C 19.808594 53.605469 19.066406 52.859375 19.066406 51.941406 C 19.066406 51.023438 19.808594 50.277344 20.722656 50.277344 C 21.640625 50.277344 22.382812 51.023438 22.382812 51.941406 Z M 22.382812 51.941406 "/>
<path style=" stroke:none;fill-rule:nonzero;fill:rgb(0.392157%,0.392157%,0.392157%);fill-opacity:1;" d="M 27.898438 48.613281 C 27.898438 49.53125 27.15625 50.277344 26.242188 50.277344 C 25.324219 50.277344 24.582031 49.53125 24.582031 48.613281 C 24.582031 47.695312 25.324219 46.949219 26.242188 46.949219 C 27.15625 46.949219 27.898438 47.695312 27.898438 48.613281 Z M 27.898438 48.613281 "/>
<path style=" stroke:none;fill-rule:nonzero;fill:rgb(0.392157%,0.392157%,0.392157%);fill-opacity:1;" d="M 33.417969 46.394531 C 33.417969 47.3125 32.671875 48.058594 31.757812 48.058594 C 30.839844 48.058594 30.097656 47.3125 30.097656 46.394531 C 30.097656 45.476562 30.839844 44.730469 31.757812 44.730469 C 32.671875 44.730469 33.417969 45.476562 33.417969 46.394531 Z M 33.417969 46.394531 "/>
<path style=" stroke:none;fill-rule:nonzero;fill:rgb(0.392157%,0.392157%,0.392157%);fill-opacity:1;" d="M 38.933594 44.175781 C 38.933594 45.09375 38.191406 45.839844 37.273438 45.839844 C 36.359375 45.839844 35.617188 45.09375 35.617188 44.175781 C 35.617188 43.257812 36.359375 42.511719 37.273438 42.511719 C 38.191406 42.511719 38.933594 43.257812 38.933594 44.175781 Z M 38.933594 44.175781 "/>
<path style=" stroke:none;fill-rule:nonzero;fill:rgb(0.392157%,0.392157%,0.392157%);fill-opacity:1;" d="M 43.34375 41.957031 C 43.34375 42.875 42.601562 43.621094 41.6875 43.621094 C 40.769531 43.621094 40.027344 42.875 40.027344 41.957031 C 40.027344 41.039062 40.769531 40.292969 41.6875 40.292969 C 42.601562 40.292969 43.34375 41.039062 43.34375 41.957031 Z M 43.34375 41.957031 "/>
<path style=" stroke:none;fill-rule:nonzero;fill:rgb(0.392157%,0.392157%,0.392157%);fill-opacity:1;" d="M 48.859375 38.628906 C 48.859375 39.546875 48.117188 40.292969 47.203125 40.292969 C 46.285156 40.292969 45.542969 39.546875 45.542969 38.628906 C 45.542969 37.710938 46.285156 36.964844 47.203125 36.964844 C 48.117188 36.964844 48.859375 37.710938 48.859375 38.628906 Z M 48.859375 38.628906 "/>
<path style=" stroke:none;fill-rule:nonzero;fill:rgb(0.392157%,0.392157%,0.392157%);fill-opacity:1;" d="M 54.378906 36.410156 C 54.378906 37.328125 53.636719 38.074219 52.71875 38.074219 C 51.804688 38.074219 51.0625 37.328125 51.0625 36.410156 C 51.0625 35.492188 51.804688 34.746094 52.71875 34.746094 C 53.636719 34.746094 54.378906 35.492188 54.378906 36.410156 Z M 54.378906 36.410156 "/>
<path style=" stroke:none;fill-rule:nonzero;fill:rgb(0.392157%,0.392157%,0.392157%);fill-opacity:1;" d="M 59.894531 34.191406 C 59.894531 35.109375 59.152344 35.855469 58.238281 35.855469 C 57.320312 35.855469 56.578125 35.109375 56.578125 34.191406 C 56.578125 33.273438 57.320312 32.527344 58.238281 32.527344 C 59.152344 32.527344 59.894531 33.273438 59.894531 34.191406 Z M 59.894531 34.191406 "/>
<path style=" stroke:none;fill-rule:nonzero;fill:rgb(0.392157%,0.392157%,0.392157%);fill-opacity:1;" d="M 65.410156 30.863281 C 65.410156 31.78125 64.667969 32.527344 63.753906 32.527344 C 62.835938 32.527344 62.09375 31.78125 62.09375 30.863281 C 62.09375 29.945312 62.835938 29.199219 63.753906 29.199219 C 64.667969 29.199219 65.410156 29.945312 65.410156 30.863281 Z M 65.410156 30.863281 "/>
<path style=" stroke:none;fill-rule:nonzero;fill:rgb(0.392157%,0.392157%,0.392157%);fill-opacity:1;" d="M 70.929688 28.644531 C 70.929688 29.5625 70.1875 30.308594 69.269531 30.308594 C 68.355469 30.308594 67.613281 29.5625 67.613281 28.644531 C 67.613281 27.726562 68.355469 26.980469 69.269531 26.980469 C 70.1875 26.980469 70.929688 27.726562 70.929688 28.644531 Z M 70.929688 28.644531 "/>
<path style=" stroke:none;fill-rule:nonzero;fill:rgb(0.392157%,0.392157%,0.392157%);fill-opacity:1;" d="M 76.445312 26.425781 C 76.445312 27.34375 75.703125 28.089844 74.789062 28.089844 C 73.871094 28.089844 73.128906 27.34375 73.128906 26.425781 C 73.128906 25.507812 73.871094 24.761719 74.789062 24.761719 C 75.703125 24.761719 76.445312 25.507812 76.445312 26.425781 Z M 76.445312 26.425781 "/>
<path style=" stroke:none;fill-rule:nonzero;fill:rgb(0.392157%,0.392157%,0.392157%);fill-opacity:1;" d="M 81.960938 24.207031 C 81.960938 25.125 81.21875 25.871094 80.304688 25.871094 C 79.386719 25.871094 78.644531 25.125 78.644531 24.207031 C 78.644531 23.289062 79.386719 22.542969 80.304688 22.542969 C 81.21875 22.542969 81.960938 23.289062 81.960938 24.207031 Z M 81.960938 24.207031 "/>
<path style=" stroke:none;fill-rule:nonzero;fill:rgb(0.392157%,0.392157%,0.392157%);fill-opacity:1;" d="M 19.066406 58.597656 C 19.066406 59.515625 18.324219 60.261719 17.40625 60.261719 C 16.492188 60.261719 15.75 59.515625 15.75 58.597656 C 15.75 57.679688 16.492188 56.933594 17.40625 56.933594 C 18.324219 56.933594 19.066406 57.679688 19.066406 58.597656 Z M 19.066406 58.597656 "/>
<path style=" stroke:none;fill-rule:nonzero;fill:rgb(0.392157%,0.392157%,0.392157%);fill-opacity:1;" d="M 24.582031 56.378906 C 24.582031 57.296875 23.839844 58.042969 22.925781 58.042969 C 22.007812 58.042969 21.265625 57.296875 21.265625 56.378906 C 21.265625 55.460938 22.007812 54.714844 22.925781 54.714844 C 23.839844 54.714844 24.582031 55.460938 24.582031 56.378906 Z M 24.582031 56.378906 "/>
<path style=" stroke:none;fill-rule:nonzero;fill:rgb(0.392157%,0.392157%,0.392157%);fill-opacity:1;" d="M 30.097656 54.160156 C 30.097656 55.078125 29.355469 55.824219 28.441406 55.824219 C 27.523438 55.824219 26.78125 55.078125 26.78125 54.160156 C 26.78125 53.242188 27.523438 52.496094 28.441406 52.496094 C 29.355469 52.496094 30.097656 53.242188 30.097656 54.160156 Z M 30.097656 54.160156 "/>
<path style=" stroke:none;fill-rule:nonzero;fill:rgb(0.392157%,0.392157%,0.392157%);fill-opacity:1;" d="M 35.617188 50.832031 C 35.617188 51.75 34.875 52.496094 33.957031 52.496094 C 33.042969 52.496094 32.300781 51.75 32.300781 50.832031 C 32.300781 49.914062 33.042969 49.167969 33.957031 49.167969 C 34.875 49.167969 35.617188 49.914062 35.617188 50.832031 Z M 35.617188 50.832031 "/>
<path style=" stroke:none;fill-rule:nonzero;fill:rgb(0.392157%,0.392157%,0.392157%);fill-opacity:1;" d="M 41.132812 48.613281 C 41.132812 49.53125 40.390625 50.277344 39.476562 50.277344 C 38.558594 50.277344 37.816406 49.53125 37.816406 48.613281 C 37.816406 47.695312 38.558594 46.949219 39.476562 46.949219 C 40.390625 46.949219 41.132812 47.695312 41.132812 48.613281 Z M 41.132812 48.613281 "/>
<path style=" stroke:none;fill-rule:nonzero;fill:rgb(0.392157%,0.392157%,0.392157%);fill-opacity:1;" d="M 46.648438 46.394531 C 46.648438 47.3125 45.90625 48.058594 44.992188 48.058594 C 44.074219 48.058594 43.332031 47.3125 43.332031 46.394531 C 43.332031 45.476562 44.074219 44.730469 44.992188 44.730469 C 45.90625 44.730469 46.648438 45.476562 46.648438 46.394531 Z M 46.648438 46.394531 "/>
<path style=" stroke:none;fill-rule:nonzero;fill:rgb(0.392157%,0.392157%,0.392157%);fill-opacity:1;" d="M 51.074219 44.175781 C 51.074219 45.09375 50.328125 45.839844 49.414062 45.839844 C 48.5 45.839844 47.753906 45.09375 47.753906 44.175781 C 47.753906 43.257812 48.5 42.511719 49.414062 42.511719 C 50.328125 42.511719 51.074219 43.257812 51.074219 44.175781 Z M 51.074219 44.175781 "/>
<path style=" stroke:none;fill-rule:nonzero;fill:rgb(0.392157%,0.392157%,0.392157%);fill-opacity:1;" d="M 56.589844 40.847656 C 56.589844 41.765625 55.847656 42.511719 54.929688 42.511719 C 54.015625 42.511719 53.273438 41.765625 53.273438 40.847656 C 53.273438 39.929688 54.015625 39.183594 54.929688 39.183594 C 55.847656 39.183594 56.589844 39.929688 56.589844 40.847656 Z M 56.589844 40.847656 "/>
<path style=" stroke:none;fill-rule:nonzero;fill:rgb(0.392157%,0.392157%,0.392157%);fill-opacity:1;" d="M 62.105469 38.628906 C 62.105469 39.546875 61.363281 40.292969 60.449219 40.292969 C 59.53125 40.292969 58.789062 39.546875 58.789062 38.628906 C 58.789062 37.710938 59.53125 36.964844 60.449219 36.964844 C 61.363281 36.964844 62.105469 37.710938 62.105469 38.628906 Z M 62.105469 38.628906 "/>
<path style=" stroke:none;fill-rule:nonzero;fill:rgb(0.392157%,0.392157%,0.392157%);fill-opacity:1;" d="M 67.625 36.410156 C 67.625 37.328125 66.878906 38.074219 65.964844 38.074219 C 65.050781 38.074219 64.304688 37.328125 64.304688 36.410156 C 64.304688 35.492188 65.050781 34.746094 65.964844 34.746094 C 66.878906 34.746094 67.625 35.492188 67.625 36.410156 Z M 67.625 36.410156 "/>
<path style=" stroke:none;fill-rule:nonzero;fill:rgb(0.392157%,0.392157%,0.392157%);fill-opacity:1;" d="M 73.140625 33.082031 C 73.140625 34 72.398438 34.746094 71.480469 34.746094 C 70.566406 34.746094 69.824219 34 69.824219 33.082031 C 69.824219 32.164062 70.566406 31.417969 71.480469 31.417969 C 72.398438 31.417969 73.140625 32.164062 73.140625 33.082031 Z M 73.140625 33.082031 "/>
<path style=" stroke:none;fill-rule:nonzero;fill:rgb(0.392157%,0.392157%,0.392157%);fill-opacity:1;" d="M 78.65625 30.863281 C 78.65625 31.78125 77.914062 32.527344 77 32.527344 C 76.082031 32.527344 75.339844 31.78125 75.339844 30.863281 C 75.339844 29.945312 76.082031 29.199219 77 29.199219 C 77.914062 29.199219 78.65625 29.945312 78.65625 30.863281 Z M 78.65625 30.863281 "/>
<path style=" stroke:none;fill-rule:nonzero;fill:rgb(0.392157%,0.392157%,0.392157%);fill-opacity:1;" d="M 84.175781 28.644531 C 84.175781 29.5625 83.429688 30.308594 82.515625 30.308594 C 81.601562 30.308594 80.855469 29.5625 80.855469 28.644531 C 80.855469 27.726562 81.601562 26.980469 82.515625 26.980469 C 83.429688 26.980469 84.175781 27.726562 84.175781 28.644531 Z M 84.175781 28.644531 "/>
<path style=" stroke:none;fill-rule:nonzero;fill:rgb(0.392157%,0.392157%,0.392157%);fill-opacity:1;" d="M 89.691406 26.425781 C 89.691406 27.34375 88.949219 28.089844 88.03125 28.089844 C 87.117188 28.089844 86.375 27.34375 86.375 26.425781 C 86.375 25.507812 87.117188 24.761719 88.03125 24.761719 C 88.949219 24.761719 89.691406 25.507812 89.691406 26.425781 Z M 89.691406 26.425781 "/>
<path style=" stroke:none;fill-rule:nonzero;fill:rgb(0.392157%,0.392157%,0.392157%);fill-opacity:1;" d="M 21.277344 64.144531 C 21.277344 65.0625 20.535156 65.808594 19.617188 65.808594 C 18.703125 65.808594 17.960938 65.0625 17.960938 64.144531 C 17.960938 63.226562 18.703125 62.480469 19.617188 62.480469 C 20.535156 62.480469 21.277344 63.226562 21.277344 64.144531 Z M 21.277344 64.144531 "/>
<path style=" stroke:none;fill-rule:nonzero;fill:rgb(0.392157%,0.392157%,0.392157%);fill-opacity:1;" d="M 26.792969 61.925781 C 26.792969 62.84375 26.050781 63.589844 25.136719 63.589844 C 24.21875 63.589844 23.476562 62.84375 23.476562 61.925781 C 23.476562 61.007812 24.21875 60.261719 25.136719 60.261719 C 26.050781 60.261719 26.792969 61.007812 26.792969 61.925781 Z M 26.792969 61.925781 "/>
<path style=" stroke:none;fill-rule:nonzero;fill:rgb(0.392157%,0.392157%,0.392157%);fill-opacity:1;" d="M 32.308594 59.707031 C 32.308594 60.625 31.566406 61.371094 30.652344 61.371094 C 29.734375 61.371094 28.992188 60.625 28.992188 59.707031 C 28.992188 58.789062 29.734375 58.042969 30.652344 58.042969 C 31.566406 58.042969 32.308594 58.789062 32.308594 59.707031 Z M 32.308594 59.707031 "/>
<path style=" stroke:none;fill-rule:nonzero;fill:rgb(0.392157%,0.392157%,0.392157%);fill-opacity:1;" d="M 37.828125 56.378906 C 37.828125 57.296875 37.085938 58.042969 36.167969 58.042969 C 35.253906 58.042969 34.511719 57.296875 34.511719 56.378906 C 34.511719 55.460938 35.253906 54.714844 36.167969 54.714844 C 37.085938 54.714844 37.828125 55.460938 37.828125 56.378906 Z M 37.828125 56.378906 "/>
<path style=" stroke:none;fill-rule:nonzero;fill:rgb(0.392157%,0.392157%,0.392157%);fill-opacity:1;" d="M 43.34375 54.160156 C 43.34375 55.078125 42.601562 55.824219 41.6875 55.824219 C 40.769531 55.824219 40.027344 55.078125 40.027344 54.160156 C 40.027344 53.242188 40.769531 52.496094 41.6875 52.496094 C 42.601562 52.496094 43.34375 53.242188 43.34375 54.160156 Z M 43.34375 54.160156 "/>
<path style=" stroke:none;fill-rule:nonzero;fill:rgb(0.392157%,0.392157%,0.392157%);fill-opacity:1;" d="M 48.859375 51.941406 C 48.859375 52.859375 48.117188 53.605469 47.203125 53.605469 C 46.285156 53.605469 45.542969 52.859375 45.542969 51.941406 C 45.542969 51.023438 46.285156 50.277344 47.203125 50.277344 C 48.117188 50.277344 48.859375 51.023438 48.859375 51.941406 Z M 48.859375 51.941406 "/>
<path style=" stroke:none;fill-rule:nonzero;fill:rgb(0.392157%,0.392157%,0.392157%);fill-opacity:1;" d="M 53.273438 49.722656 C 53.273438 50.640625 52.53125 51.386719 51.613281 51.386719 C 50.699219 51.386719 49.957031 50.640625 49.957031 49.722656 C 49.957031 48.804688 50.699219 48.058594 51.613281 48.058594 C 52.53125 48.058594 53.273438 48.804688 53.273438 49.722656 Z M 53.273438 49.722656 "/>
<path style=" stroke:none;fill-rule:nonzero;fill:rgb(0.392157%,0.392157%,0.392157%);fill-opacity:1;" d="M 58.789062 46.394531 C 58.789062 47.3125 58.046875 48.058594 57.132812 48.058594 C 56.214844 48.058594 55.472656 47.3125 55.472656 46.394531 C 55.472656 45.476562 56.214844 44.730469 57.132812 44.730469 C 58.046875 44.730469 58.789062 45.476562 58.789062 46.394531 Z M 58.789062 46.394531 "/>
<path style=" stroke:none;fill-rule:nonzero;fill:rgb(0.392157%,0.392157%,0.392157%);fill-opacity:1;" d="M 64.304688 44.175781 C 64.304688 45.09375 63.5625 45.839844 62.648438 45.839844 C 61.730469 45.839844 60.988281 45.09375 60.988281 44.175781 C 60.988281 43.257812 61.730469 42.511719 62.648438 42.511719 C 63.5625 42.511719 64.304688 43.257812 64.304688 44.175781 Z M 64.304688 44.175781 "/>
<path style=" stroke:none;fill-rule:nonzero;fill:rgb(0.392157%,0.392157%,0.392157%);fill-opacity:1;" d="M 69.824219 41.957031 C 69.824219 42.875 69.082031 43.621094 68.164062 43.621094 C 67.25 43.621094 66.507812 42.875 66.507812 41.957031 C 66.507812 41.039062 67.25 40.292969 68.164062 40.292969 C 69.082031 40.292969 69.824219 41.039062 69.824219 41.957031 Z M 69.824219 41.957031 "/>
<path style=" stroke:none;fill-rule:nonzero;fill:rgb(0.392157%,0.392157%,0.392157%);fill-opacity:1;" d="M 75.339844 38.628906 C 75.339844 39.546875 74.597656 40.292969 73.683594 40.292969 C 72.765625 40.292969 72.023438 39.546875 72.023438 38.628906 C 72.023438 37.710938 72.765625 36.964844 73.683594 36.964844 C 74.597656 36.964844 75.339844 37.710938 75.339844 38.628906 Z M 75.339844 38.628906 "/>
<path style=" stroke:none;fill-rule:nonzero;fill:rgb(0.392157%,0.392157%,0.392157%);fill-opacity:1;" d="M 80.855469 36.410156 C 80.855469 37.328125 80.113281 38.074219 79.199219 38.074219 C 78.28125 38.074219 77.539062 37.328125 77.539062 36.410156 C 77.539062 35.492188 78.28125 34.746094 79.199219 34.746094 C 80.113281 34.746094 80.855469 35.492188 80.855469 36.410156 Z M 80.855469 36.410156 "/>
<path style=" stroke:none;fill-rule:nonzero;fill:rgb(0.392157%,0.392157%,0.392157%);fill-opacity:1;" d="M 86.375 34.191406 C 86.375 35.109375 85.632812 35.855469 84.714844 35.855469 C 83.800781 35.855469 83.058594 35.109375 83.058594 34.191406 C 83.058594 33.273438 83.800781 32.527344 84.714844 32.527344 C 85.632812 32.527344 86.375 33.273438 86.375 34.191406 Z M 86.375 34.191406 "/>
<path style=" stroke:none;fill-rule:nonzero;fill:rgb(0.392157%,0.392157%,0.392157%);fill-opacity:1;" d="M 91.890625 31.972656 C 91.890625 32.890625 91.148438 33.636719 90.234375 33.636719 C 89.316406 33.636719 88.574219 32.890625 88.574219 31.972656 C 88.574219 31.054688 89.316406 30.308594 90.234375 30.308594 C 91.148438 30.308594 91.890625 31.054688 91.890625 31.972656 Z M 91.890625 31.972656 "/>
<path style=" stroke:none;fill-rule:nonzero;fill:rgb(0.392157%,0.392157%,0.392157%);fill-opacity:1;" d="M 24.582031 69.691406 C 24.582031 70.609375 23.839844 71.355469 22.925781 71.355469 C 22.007812 71.355469 21.265625 70.609375 21.265625 69.691406 C 21.265625 68.773438 22.007812 68.027344 22.925781 68.027344 C 23.839844 68.027344 24.582031 68.773438 24.582031 69.691406 Z M 24.582031 69.691406 "/>
<path style=" stroke:none;fill-rule:nonzero;fill:rgb(0.392157%,0.392157%,0.392157%);fill-opacity:1;" d="M 30.097656 67.472656 C 30.097656 68.390625 29.355469 69.136719 28.441406 69.136719 C 27.523438 69.136719 26.78125 68.390625 26.78125 67.472656 C 26.78125 66.554688 27.523438 65.808594 28.441406 65.808594 C 29.355469 65.808594 30.097656 66.554688 30.097656 67.472656 Z M 30.097656 67.472656 "/>
<path style=" stroke:none;fill-rule:nonzero;fill:rgb(0.392157%,0.392157%,0.392157%);fill-opacity:1;" d="M 35.617188 65.253906 C 35.617188 66.171875 34.875 66.917969 33.957031 66.917969 C 33.042969 66.917969 32.300781 66.171875 32.300781 65.253906 C 32.300781 64.335938 33.042969 63.589844 33.957031 63.589844 C 34.875 63.589844 35.617188 64.335938 35.617188 65.253906 Z M 35.617188 65.253906 "/>
<path style=" stroke:none;fill-rule:nonzero;fill:rgb(0.392157%,0.392157%,0.392157%);fill-opacity:1;" d="M 41.132812 61.925781 C 41.132812 62.84375 40.390625 63.589844 39.476562 63.589844 C 38.558594 63.589844 37.816406 62.84375 37.816406 61.925781 C 37.816406 61.007812 38.558594 60.261719 39.476562 60.261719 C 40.390625 60.261719 41.132812 61.007812 41.132812 61.925781 Z M 41.132812 61.925781 "/>
<path style=" stroke:none;fill-rule:nonzero;fill:rgb(0.392157%,0.392157%,0.392157%);fill-opacity:1;" d="M 46.648438 59.707031 C 46.648438 60.625 45.90625 61.371094 44.992188 61.371094 C 44.074219 61.371094 43.332031 60.625 43.332031 59.707031 C 43.332031 58.789062 44.074219 58.042969 44.992188 58.042969 C 45.90625 58.042969 46.648438 58.789062 46.648438 59.707031 Z M 46.648438 59.707031 "/>
<path style=" stroke:none;fill-rule:nonzero;fill:rgb(0.392157%,0.392157%,0.392157%);fill-opacity:1;" d="M 52.167969 57.488281 C 52.167969 58.40625 51.425781 59.152344 50.507812 59.152344 C 49.59375 59.152344 48.851562 58.40625 48.851562 57.488281 C 48.851562 56.570312 49.59375 55.824219 50.507812 55.824219 C 51.425781 55.824219 52.167969 56.570312 52.167969 57.488281 Z M 52.167969 57.488281 "/>
<path style=" stroke:none;fill-rule:nonzero;fill:rgb(0.392157%,0.392157%,0.392157%);fill-opacity:1;" d="M 56.589844 55.269531 C 56.589844 56.1875 55.847656 56.933594 54.929688 56.933594 C 54.015625 56.933594 53.273438 56.1875 53.273438 55.269531 C 53.273438 54.351562 54.015625 53.605469 54.929688 53.605469 C 55.847656 53.605469 56.589844 54.351562 56.589844 55.269531 Z M 56.589844 55.269531 "/>
<path style=" stroke:none;fill-rule:nonzero;fill:rgb(0.392157%,0.392157%,0.392157%);fill-opacity:1;" d="M 62.105469 51.941406 C 62.105469 52.859375 61.363281 53.605469 60.449219 53.605469 C 59.53125 53.605469 58.789062 52.859375 58.789062 51.941406 C 58.789062 51.023438 59.53125 50.277344 60.449219 50.277344 C 61.363281 50.277344 62.105469 51.023438 62.105469 51.941406 Z M 62.105469 51.941406 "/>
<path style=" stroke:none;fill-rule:nonzero;fill:rgb(0.392157%,0.392157%,0.392157%);fill-opacity:1;" d="M 67.625 49.722656 C 67.625 50.640625 66.878906 51.386719 65.964844 51.386719 C 65.050781 51.386719 64.304688 50.640625 64.304688 49.722656 C 64.304688 48.804688 65.050781 48.058594 65.964844 48.058594 C 66.878906 48.058594 67.625 48.804688 67.625 49.722656 Z M 67.625 49.722656 "/>
<path style=" stroke:none;fill-rule:nonzero;fill:rgb(0.392157%,0.392157%,0.392157%);fill-opacity:1;" d="M 73.140625 47.503906 C 73.140625 48.421875 72.398438 49.167969 71.480469 49.167969 C 70.566406 49.167969 69.824219 48.421875 69.824219 47.503906 C 69.824219 46.585938 70.566406 45.839844 71.480469 45.839844 C 72.398438 45.839844 73.140625 46.585938 73.140625 47.503906 Z M 73.140625 47.503906 "/>
<path style=" stroke:none;fill-rule:nonzero;fill:rgb(0.392157%,0.392157%,0.392157%);fill-opacity:1;" d="M 78.65625 44.175781 C 78.65625 45.09375 77.914062 45.839844 77 45.839844 C 76.082031 45.839844 75.339844 45.09375 75.339844 44.175781 C 75.339844 43.257812 76.082031 42.511719 77 42.511719 C 77.914062 42.511719 78.65625 43.257812 78.65625 44.175781 Z M 78.65625 44.175781 "/>
<path style=" stroke:none;fill-rule:nonzero;fill:rgb(0.392157%,0.392157%,0.392157%);fill-opacity:1;" d="M 84.175781 41.957031 C 84.175781 42.875 83.429688 43.621094 82.515625 43.621094 C 81.601562 43.621094 80.855469 42.875 80.855469 41.957031 C 80.855469 41.039062 81.601562 40.292969 82.515625 40.292969 C 83.429688 40.292969 84.175781 41.039062 84.175781 41.957031 Z M 84.175781 41.957031 "/>
<path style=" stroke:none;fill-rule:nonzero;fill:rgb(0.392157%,0.392157%,0.392157%);fill-opacity:1;" d="M 89.691406 39.738281 C 89.691406 40.65625 88.949219 41.402344 88.03125 41.402344 C 87.117188 41.402344 86.375 40.65625 86.375 39.738281 C 86.375 38.820312 87.117188 38.074219 88.03125 38.074219 C 88.949219 38.074219 89.691406 38.820312 89.691406 39.738281 Z M 89.691406 39.738281 "/>
<path style=" stroke:none;fill-rule:nonzero;fill:rgb(0.392157%,0.392157%,0.392157%);fill-opacity:1;" d="M 95.207031 37.519531 C 95.207031 38.4375 94.464844 39.183594 93.550781 39.183594 C 92.632812 39.183594 91.890625 38.4375 91.890625 37.519531 C 91.890625 36.601562 92.632812 35.855469 93.550781 35.855469 C 94.464844 35.855469 95.207031 36.601562 95.207031 37.519531 Z M 95.207031 37.519531 "/>
<path style=" stroke:none;fill-rule:nonzero;fill:rgb(0.392157%,0.392157%,0.392157%);fill-opacity:1;" d="M 26.792969 75.238281 C 26.792969 76.15625 26.050781 76.902344 25.136719 76.902344 C 24.21875 76.902344 23.476562 76.15625 23.476562 75.238281 C 23.476562 74.320312 24.21875 73.574219 25.136719 73.574219 C 26.050781 73.574219 26.792969 74.320312 26.792969 75.238281 Z M 26.792969 75.238281 "/>
<path style=" stroke:none;fill-rule:nonzero;fill:rgb(0.392157%,0.392157%,0.392157%);fill-opacity:1;" d="M 32.308594 73.019531 C 32.308594 73.9375 31.566406 74.683594 30.652344 74.683594 C 29.734375 74.683594 28.992188 73.9375 28.992188 73.019531 C 28.992188 72.101562 29.734375 71.355469 30.652344 71.355469 C 31.566406 71.355469 32.308594 72.101562 32.308594 73.019531 Z M 32.308594 73.019531 "/>
<path style=" stroke:none;fill-rule:nonzero;fill:rgb(0.392157%,0.392157%,0.392157%);fill-opacity:1;" d="M 37.828125 70.800781 C 37.828125 71.71875 37.085938 72.464844 36.167969 72.464844 C 35.253906 72.464844 34.511719 71.71875 34.511719 70.800781 C 34.511719 69.882812 35.253906 69.136719 36.167969 69.136719 C 37.085938 69.136719 37.828125 69.882812 37.828125 70.800781 Z M 37.828125 70.800781 "/>
<path style=" stroke:none;fill-rule:nonzero;fill:rgb(0.392157%,0.392157%,0.392157%);fill-opacity:1;" d="M 43.34375 67.472656 C 43.34375 68.390625 42.601562 69.136719 41.6875 69.136719 C 40.769531 69.136719 40.027344 68.390625 40.027344 67.472656 C 40.027344 66.554688 40.769531 65.808594 41.6875 65.808594 C 42.601562 65.808594 43.34375 66.554688 43.34375 67.472656 Z M 43.34375 67.472656 "/>
<path style=" stroke:none;fill-rule:nonzero;fill:rgb(0.392157%,0.392157%,0.392157%);fill-opacity:1;" d="M 48.859375 65.253906 C 48.859375 66.171875 48.117188 66.917969 47.203125 66.917969 C 46.285156 66.917969 45.542969 66.171875 45.542969 65.253906 C 45.542969 64.335938 46.285156 63.589844 47.203125 63.589844 C 48.117188 63.589844 48.859375 64.335938 48.859375 65.253906 Z M 48.859375 65.253906 "/>
<path style=" stroke:none;fill-rule:nonzero;fill:rgb(0.392157%,0.392157%,0.392157%);fill-opacity:1;" d="M 54.378906 63.035156 C 54.378906 63.953125 53.636719 64.699219 52.71875 64.699219 C 51.804688 64.699219 51.0625 63.953125 51.0625 63.035156 C 51.0625 62.117188 51.804688 61.371094 52.71875 61.371094 C 53.636719 61.371094 54.378906 62.117188 54.378906 63.035156 Z M 54.378906 63.035156 "/>
<path style=" stroke:none;fill-rule:nonzero;fill:rgb(0.392157%,0.392157%,0.392157%);fill-opacity:1;" d="M 58.789062 60.816406 C 58.789062 61.734375 58.046875 62.480469 57.132812 62.480469 C 56.214844 62.480469 55.472656 61.734375 55.472656 60.816406 C 55.472656 59.898438 56.214844 59.152344 57.132812 59.152344 C 58.046875 59.152344 58.789062 59.898438 58.789062 60.816406 Z M 58.789062 60.816406 "/>
<path style=" stroke:none;fill-rule:nonzero;fill:rgb(0.392157%,0.392157%,0.392157%);fill-opacity:1;" d="M 64.304688 57.488281 C 64.304688 58.40625 63.5625 59.152344 62.648438 59.152344 C 61.730469 59.152344 60.988281 58.40625 60.988281 57.488281 C 60.988281 56.570312 61.730469 55.824219 62.648438 55.824219 C 63.5625 55.824219 64.304688 56.570312 64.304688 57.488281 Z M 64.304688 57.488281 "/>
<path style=" stroke:none;fill-rule:nonzero;fill:rgb(0.392157%,0.392157%,0.392157%);fill-opacity:1;" d="M 69.824219 55.269531 C 69.824219 56.1875 69.082031 56.933594 68.164062 56.933594 C 67.25 56.933594 66.507812 56.1875 66.507812 55.269531 C 66.507812 54.351562 67.25 53.605469 68.164062 53.605469 C 69.082031 53.605469 69.824219 54.351562 69.824219 55.269531 Z M 69.824219 55.269531 "/>
<path style=" stroke:none;fill-rule:nonzero;fill:rgb(0.392157%,0.392157%,0.392157%);fill-opacity:1;" d="M 75.339844 53.050781 C 75.339844 53.96875 74.597656 54.714844 73.683594 54.714844 C 72.765625 54.714844 72.023438 53.96875 72.023438 53.050781 C 72.023438 52.132812 72.765625 51.386719 73.683594 51.386719 C 74.597656 51.386719 75.339844 52.132812 75.339844 53.050781 Z M 75.339844 53.050781 "/>
<path style=" stroke:none;fill-rule:nonzero;fill:rgb(0.392157%,0.392157%,0.392157%);fill-opacity:1;" d="M 80.855469 49.722656 C 80.855469 50.640625 80.113281 51.386719 79.199219 51.386719 C 78.28125 51.386719 77.539062 50.640625 77.539062 49.722656 C 77.539062 48.804688 78.28125 48.058594 79.199219 48.058594 C 80.113281 48.058594 80.855469 48.804688 80.855469 49.722656 Z M 80.855469 49.722656 "/>
<path style=" stroke:none;fill-rule:nonzero;fill:rgb(0.392157%,0.392157%,0.392157%);fill-opacity:1;" d="M 86.375 47.503906 C 86.375 48.421875 85.632812 49.167969 84.714844 49.167969 C 83.800781 49.167969 83.058594 48.421875 83.058594 47.503906 C 83.058594 46.585938 83.800781 45.839844 84.714844 45.839844 C 85.632812 45.839844 86.375 46.585938 86.375 47.503906 Z M 86.375 47.503906 "/>
<path style=" stroke:none;fill-rule:nonzero;fill:rgb(0.392157%,0.392157%,0.392157%);fill-opacity:1;" d="M 91.890625 45.285156 C 91.890625 46.203125 91.148438 46.949219 90.234375 46.949219 C 89.316406 46.949219 88.574219 46.203125 88.574219 45.285156 C 88.574219 44.367188 89.316406 43.621094 90.234375 43.621094 C 91.148438 43.621094 91.890625 44.367188 91.890625 45.285156 Z M 91.890625 45.285156 "/>
<path style=" stroke:none;fill-rule:nonzero;fill:rgb(0.392157%,0.392157%,0.392157%);fill-opacity:1;" d="M 97.40625 43.066406 C 97.40625 43.984375 96.664062 44.730469 95.75 44.730469 C 94.832031 44.730469 94.089844 43.984375 94.089844 43.066406 C 94.089844 42.148438 94.832031 41.402344 95.75 41.402344 C 96.664062 41.402344 97.40625 42.148438 97.40625 43.066406 Z M 97.40625 43.066406 "/>
<path style=" stroke:none;fill-rule:nonzero;fill:rgb(0.392157%,0.392157%,0.392157%);fill-opacity:1;" d="M 29.003906 80.785156 C 29.003906 81.703125 28.261719 82.449219 27.347656 82.449219 C 26.429688 82.449219 25.6875 81.703125 25.6875 80.785156 C 25.6875 79.867188 26.429688 79.121094 27.347656 79.121094 C 28.261719 79.121094 29.003906 79.867188 29.003906 80.785156 Z M 29.003906 80.785156 "/>
<path style=" stroke:none;fill-rule:nonzero;fill:rgb(0.392157%,0.392157%,0.392157%);fill-opacity:1;" d="M 34.523438 78.566406 C 34.523438 79.484375 33.777344 80.230469 32.863281 80.230469 C 31.949219 80.230469 31.203125 79.484375 31.203125 78.566406 C 31.203125 77.648438 31.949219 76.902344 32.863281 76.902344 C 33.777344 76.902344 34.523438 77.648438 34.523438 78.566406 Z M 34.523438 78.566406 "/>
<path style=" stroke:none;fill-rule:nonzero;fill:rgb(0.392157%,0.392157%,0.392157%);fill-opacity:1;" d="M 40.039062 76.347656 C 40.039062 77.265625 39.296875 78.011719 38.378906 78.011719 C 37.464844 78.011719 36.722656 77.265625 36.722656 76.347656 C 36.722656 75.429688 37.464844 74.683594 38.378906 74.683594 C 39.296875 74.683594 40.039062 75.429688 40.039062 76.347656 Z M 40.039062 76.347656 "/>
<path style=" stroke:none;fill-rule:nonzero;fill:rgb(0.392157%,0.392157%,0.392157%);fill-opacity:1;" d="M 45.554688 73.019531 C 45.554688 73.9375 44.8125 74.683594 43.898438 74.683594 C 42.980469 74.683594 42.238281 73.9375 42.238281 73.019531 C 42.238281 72.101562 42.980469 71.355469 43.898438 71.355469 C 44.8125 71.355469 45.554688 72.101562 45.554688 73.019531 Z M 45.554688 73.019531 "/>
<path style=" stroke:none;fill-rule:nonzero;fill:rgb(0.392157%,0.392157%,0.392157%);fill-opacity:1;" d="M 51.074219 70.800781 C 51.074219 71.71875 50.328125 72.464844 49.414062 72.464844 C 48.5 72.464844 47.753906 71.71875 47.753906 70.800781 C 47.753906 69.882812 48.5 69.136719 49.414062 69.136719 C 50.328125 69.136719 51.074219 69.882812 51.074219 70.800781 Z M 51.074219 70.800781 "/>
<path style=" stroke:none;fill-rule:nonzero;fill:rgb(0.392157%,0.392157%,0.392157%);fill-opacity:1;" d="M 56.589844 68.582031 C 56.589844 69.5 55.847656 70.246094 54.929688 70.246094 C 54.015625 70.246094 53.273438 69.5 53.273438 68.582031 C 53.273438 67.664062 54.015625 66.917969 54.929688 66.917969 C 55.847656 66.917969 56.589844 67.664062 56.589844 68.582031 Z M 56.589844 68.582031 "/>
<path style=" stroke:none;fill-rule:nonzero;fill:rgb(0.392157%,0.392157%,0.392157%);fill-opacity:1;" d="M 61 66.363281 C 61 67.28125 60.257812 68.027344 59.34375 68.027344 C 58.425781 68.027344 57.683594 67.28125 57.683594 66.363281 C 57.683594 65.445312 58.425781 64.699219 59.34375 64.699219 C 60.257812 64.699219 61 65.445312 61 66.363281 Z M 61 66.363281 "/>
<path style=" stroke:none;fill-rule:nonzero;fill:rgb(0.392157%,0.392157%,0.392157%);fill-opacity:1;" d="M 66.519531 63.035156 C 66.519531 63.953125 65.773438 64.699219 64.859375 64.699219 C 63.941406 64.699219 63.199219 63.953125 63.199219 63.035156 C 63.199219 62.117188 63.941406 61.371094 64.859375 61.371094 C 65.773438 61.371094 66.519531 62.117188 66.519531 63.035156 Z M 66.519531 63.035156 "/>
<path style=" stroke:none;fill-rule:nonzero;fill:rgb(0.392157%,0.392157%,0.392157%);fill-opacity:1;" d="M 72.035156 60.816406 C 72.035156 61.734375 71.292969 62.480469 70.375 62.480469 C 69.460938 62.480469 68.71875 61.734375 68.71875 60.816406 C 68.71875 59.898438 69.460938 59.152344 70.375 59.152344 C 71.292969 59.152344 72.035156 59.898438 72.035156 60.816406 Z M 72.035156 60.816406 "/>
<path style=" stroke:none;fill-rule:nonzero;fill:rgb(0.392157%,0.392157%,0.392157%);fill-opacity:1;" d="M 77.550781 58.597656 C 77.550781 59.515625 76.808594 60.261719 75.894531 60.261719 C 74.976562 60.261719 74.234375 59.515625 74.234375 58.597656 C 74.234375 57.679688 74.976562 56.933594 75.894531 56.933594 C 76.808594 56.933594 77.550781 57.679688 77.550781 58.597656 Z M 77.550781 58.597656 "/>
<path style=" stroke:none;fill-rule:nonzero;fill:rgb(0.392157%,0.392157%,0.392157%);fill-opacity:1;" d="M 111.757812 14.222656 C 111.757812 15.140625 111.015625 15.886719 110.101562 15.886719 C 109.183594 15.886719 108.441406 15.140625 108.441406 14.222656 C 108.441406 13.304688 109.183594 12.558594 110.101562 12.558594 C 111.015625 12.558594 111.757812 13.304688 111.757812 14.222656 Z M 111.757812 14.222656 "/>
<path style="fill:none;stroke-width:3;stroke-linecap:round;stroke-linejoin:miter;stroke:rgb(0.392157%,0.392157%,0.392157%);stroke-opacity:1;stroke-miterlimit:10;" d="M 194.349919 54.819909 C 194.349919 54.819909 191.72125 64.4501 178.560235 67.640211 " transform="matrix(1.105597,0,0,1.109385,0.0491377,0)"/>
<path style=" stroke:none;fill-rule:nonzero;fill:rgb(0.392157%,0.392157%,0.392157%);fill-opacity:1;" d="M 117.277344 12.003906 C 117.277344 12.921875 116.53125 13.667969 115.617188 13.667969 C 114.703125 13.667969 113.957031 12.921875 113.957031 12.003906 C 113.957031 11.085938 114.703125 10.339844 115.617188 10.339844 C 116.53125 10.339844 117.277344 11.085938 117.277344 12.003906 Z M 117.277344 12.003906 "/>
<path style=" stroke:none;fill-rule:nonzero;fill:rgb(0.392157%,0.392157%,0.392157%);fill-opacity:1;" d="M 136.027344 31.972656 C 136.027344 32.890625 135.285156 33.636719 134.367188 33.636719 C 133.453125 33.636719 132.710938 32.890625 132.710938 31.972656 C 132.710938 31.054688 133.453125 30.308594 134.367188 30.308594 C 135.285156 30.308594 136.027344 31.054688 136.027344 31.972656 Z M 136.027344 31.972656 "/>
<path style=" stroke:none;fill-rule:nonzero;fill:rgb(0.392157%,0.392157%,0.392157%);fill-opacity:1;" d="M 141.542969 29.753906 C 141.542969 30.671875 140.800781 31.417969 139.886719 31.417969 C 138.96875 31.417969 138.226562 30.671875 138.226562 29.753906 C 138.226562 28.835938 138.96875 28.089844 139.886719 28.089844 C 140.800781 28.089844 141.542969 28.835938 141.542969 29.753906 Z M 141.542969 29.753906 "/>
<path style=" stroke:none;fill-rule:nonzero;fill:rgb(0.392157%,0.392157%,0.392157%);fill-opacity:1;" d="M 143.753906 35.300781 C 143.753906 36.21875 143.011719 36.964844 142.097656 36.964844 C 141.179688 36.964844 140.4375 36.21875 140.4375 35.300781 C 140.4375 34.382812 141.179688 33.636719 142.097656 33.636719 C 143.011719 33.636719 143.753906 34.382812 143.753906 35.300781 Z M 143.753906 35.300781 "/>
<path style=" stroke:none;fill-rule:nonzero;fill:rgb(0.392157%,0.392157%,0.392157%);fill-opacity:1;" d="M 149.273438 33.082031 C 149.273438 34 148.527344 34.746094 147.613281 34.746094 C 146.699219 34.746094 145.953125 34 145.953125 33.082031 C 145.953125 32.164062 146.699219 31.417969 147.613281 31.417969 C 148.527344 31.417969 149.273438 32.164062 149.273438 33.082031 Z M 149.273438 33.082031 "/>
<path style=" stroke:none;fill-rule:nonzero;fill:rgb(0.392157%,0.392157%,0.392157%);fill-opacity:1;" d="M 153.683594 23.097656 C 153.683594 24.015625 152.941406 24.761719 152.023438 24.761719 C 151.109375 24.761719 150.367188 24.015625 150.367188 23.097656 C 150.367188 22.179688 151.109375 21.433594 152.023438 21.433594 C 152.941406 21.433594 153.683594 22.179688 153.683594 23.097656 Z M 153.683594 23.097656 "/>
<path style=" stroke:none;fill-rule:nonzero;fill:rgb(0.392157%,0.392157%,0.392157%);fill-opacity:1;" d="M 204.441406 68.582031 C 204.441406 69.5 203.699219 70.246094 202.78125 70.246094 C 201.867188 70.246094 201.125 69.5 201.125 68.582031 C 201.125 67.664062 201.867188 66.917969 202.78125 66.917969 C 203.699219 66.917969 204.441406 67.664062 204.441406 68.582031 Z M 204.441406 68.582031 "/>
<path style=" stroke:none;fill-rule:nonzero;fill:rgb(0.392157%,0.392157%,0.392157%);fill-opacity:1;" d="M 83.070312 55.269531 C 83.070312 56.1875 82.324219 56.933594 81.410156 56.933594 C 80.492188 56.933594 79.75 56.1875 79.75 55.269531 C 79.75 54.351562 80.492188 53.605469 81.410156 53.605469 C 82.324219 53.605469 83.070312 54.351562 83.070312 55.269531 Z M 83.070312 55.269531 "/>
<path style=" stroke:none;fill-rule:nonzero;fill:rgb(0.392157%,0.392157%,0.392157%);fill-opacity:1;" d="M 88.585938 53.050781 C 88.585938 53.96875 87.84375 54.714844 86.925781 54.714844 C 86.011719 54.714844 85.269531 53.96875 85.269531 53.050781 C 85.269531 52.132812 86.011719 51.386719 86.925781 51.386719 C 87.84375 51.386719 88.585938 52.132812 88.585938 53.050781 Z M 88.585938 53.050781 "/>
<path style=" stroke:none;fill-rule:nonzero;fill:rgb(0.392157%,0.392157%,0.392157%);fill-opacity:1;" d="M 94.101562 50.832031 C 94.101562 51.75 93.359375 52.496094 92.445312 52.496094 C 91.527344 52.496094 90.785156 51.75 90.785156 50.832031 C 90.785156 49.914062 91.527344 49.167969 92.445312 49.167969 C 93.359375 49.167969 94.101562 49.914062 94.101562 50.832031 Z M 94.101562 50.832031 "/>
<path style=" stroke:none;fill-rule:nonzero;fill:rgb(0.392157%,0.392157%,0.392157%);fill-opacity:1;" d="M 99.621094 48.613281 C 99.621094 49.53125 98.875 50.277344 97.960938 50.277344 C 97.046875 50.277344 96.300781 49.53125 96.300781 48.613281 C 96.300781 47.695312 97.046875 46.949219 97.960938 46.949219 C 98.875 46.949219 99.621094 47.695312 99.621094 48.613281 Z M 99.621094 48.613281 "/>
<path style=" stroke:none;fill-rule:nonzero;fill:rgb(0.392157%,0.392157%,0.392157%);fill-opacity:1;" d="M 37.828125 84.113281 C 37.828125 85.03125 37.085938 85.777344 36.167969 85.777344 C 35.253906 85.777344 34.511719 85.03125 34.511719 84.113281 C 34.511719 83.195312 35.253906 82.449219 36.167969 82.449219 C 37.085938 82.449219 37.828125 83.195312 37.828125 84.113281 Z M 37.828125 84.113281 "/>
<path style=" stroke:none;fill-rule:nonzero;fill:rgb(0.392157%,0.392157%,0.392157%);fill-opacity:1;" d="M 43.34375 81.894531 C 43.34375 82.8125 42.601562 83.558594 41.6875 83.558594 C 40.769531 83.558594 40.027344 82.8125 40.027344 81.894531 C 40.027344 80.976562 40.769531 80.230469 41.6875 80.230469 C 42.601562 80.230469 43.34375 80.976562 43.34375 81.894531 Z M 43.34375 81.894531 "/>
<path style=" stroke:none;fill-rule:nonzero;fill:rgb(0.392157%,0.392157%,0.392157%);fill-opacity:1;" d="M 48.859375 78.566406 C 48.859375 79.484375 48.117188 80.230469 47.203125 80.230469 C 46.285156 80.230469 45.542969 79.484375 45.542969 78.566406 C 45.542969 77.648438 46.285156 76.902344 47.203125 76.902344 C 48.117188 76.902344 48.859375 77.648438 48.859375 78.566406 Z M 48.859375 78.566406 "/>
<path style=" stroke:none;fill-rule:nonzero;fill:rgb(0.392157%,0.392157%,0.392157%);fill-opacity:1;" d="M 54.378906 76.347656 C 54.378906 77.265625 53.636719 78.011719 52.71875 78.011719 C 51.804688 78.011719 51.0625 77.265625 51.0625 76.347656 C 51.0625 75.429688 51.804688 74.683594 52.71875 74.683594 C 53.636719 74.683594 54.378906 75.429688 54.378906 76.347656 Z M 54.378906 76.347656 "/>
<path style=" stroke:none;fill-rule:nonzero;fill:rgb(0.392157%,0.392157%,0.392157%);fill-opacity:1;" d="M 59.894531 74.128906 C 59.894531 75.046875 59.152344 75.792969 58.238281 75.792969 C 57.320312 75.792969 56.578125 75.046875 56.578125 74.128906 C 56.578125 73.210938 57.320312 72.464844 58.238281 72.464844 C 59.152344 72.464844 59.894531 73.210938 59.894531 74.128906 Z M 59.894531 74.128906 "/>
<path style=" stroke:none;fill-rule:nonzero;fill:rgb(0.392157%,0.392157%,0.392157%);fill-opacity:1;" d="M 64.304688 71.910156 C 64.304688 72.828125 63.5625 73.574219 62.648438 73.574219 C 61.730469 73.574219 60.988281 72.828125 60.988281 71.910156 C 60.988281 70.992188 61.730469 70.246094 62.648438 70.246094 C 63.5625 70.246094 64.304688 70.992188 64.304688 71.910156 Z M 64.304688 71.910156 "/>
<path style=" stroke:none;fill-rule:nonzero;fill:rgb(0.392157%,0.392157%,0.392157%);fill-opacity:1;" d="M 69.824219 68.582031 C 69.824219 69.5 69.082031 70.246094 68.164062 70.246094 C 67.25 70.246094 66.507812 69.5 66.507812 68.582031 C 66.507812 67.664062 67.25 66.917969 68.164062 66.917969 C 69.082031 66.917969 69.824219 67.664062 69.824219 68.582031 Z M 69.824219 68.582031 "/>
<path style=" stroke:none;fill-rule:nonzero;fill:rgb(0.392157%,0.392157%,0.392157%);fill-opacity:1;" d="M 75.339844 66.363281 C 75.339844 67.28125 74.597656 68.027344 73.683594 68.027344 C 72.765625 68.027344 72.023438 67.28125 72.023438 66.363281 C 72.023438 65.445312 72.765625 64.699219 73.683594 64.699219 C 74.597656 64.699219 75.339844 65.445312 75.339844 66.363281 Z M 75.339844 66.363281 "/>
<path style=" stroke:none;fill-rule:nonzero;fill:rgb(0.392157%,0.392157%,0.392157%);fill-opacity:1;" d="M 80.855469 64.144531 C 80.855469 65.0625 80.113281 65.808594 79.199219 65.808594 C 78.28125 65.808594 77.539062 65.0625 77.539062 64.144531 C 77.539062 63.226562 78.28125 62.480469 79.199219 62.480469 C 80.113281 62.480469 80.855469 63.226562 80.855469 64.144531 Z M 80.855469 64.144531 "/>
<path style=" stroke:none;fill-rule:nonzero;fill:rgb(0.392157%,0.392157%,0.392157%);fill-opacity:1;" d="M 86.375 60.816406 C 86.375 61.734375 85.632812 62.480469 84.714844 62.480469 C 83.800781 62.480469 83.058594 61.734375 83.058594 60.816406 C 83.058594 59.898438 83.800781 59.152344 84.714844 59.152344 C 85.632812 59.152344 86.375 59.898438 86.375 60.816406 Z M 86.375 60.816406 "/>
<path style=" stroke:none;fill-rule:nonzero;fill:rgb(0.392157%,0.392157%,0.392157%);fill-opacity:1;" d="M 91.890625 58.597656 C 91.890625 59.515625 91.148438 60.261719 90.234375 60.261719 C 89.316406 60.261719 88.574219 59.515625 88.574219 58.597656 C 88.574219 57.679688 89.316406 56.933594 90.234375 56.933594 C 91.148438 56.933594 91.890625 57.679688 91.890625 58.597656 Z M 91.890625 58.597656 "/>
<path style=" stroke:none;fill-rule:nonzero;fill:rgb(0.392157%,0.392157%,0.392157%);fill-opacity:1;" d="M 97.40625 56.378906 C 97.40625 57.296875 96.664062 58.042969 95.75 58.042969 C 94.832031 58.042969 94.089844 57.296875 94.089844 56.378906 C 94.089844 55.460938 94.832031 54.714844 95.75 54.714844 C 96.664062 54.714844 97.40625 55.460938 97.40625 56.378906 Z M 97.40625 56.378906 "/>
<path style=" stroke:none;fill-rule:nonzero;fill:rgb(0.392157%,0.392157%,0.392157%);fill-opacity:1;" d="M 102.925781 54.160156 C 102.925781 55.078125 102.183594 55.824219 101.265625 55.824219 C 100.351562 55.824219 99.609375 55.078125 99.609375 54.160156 C 99.609375 53.242188 100.351562 52.496094 101.265625 52.496094 C 102.183594 52.496094 102.925781 53.242188 102.925781 54.160156 Z M 102.925781 54.160156 "/>
<path style=" stroke:none;fill-rule:nonzero;fill:rgb(0.392157%,0.392157%,0.392157%);fill-opacity:1;" d="M 95.207031 24.207031 C 95.207031 25.125 94.464844 25.871094 93.550781 25.871094 C 92.632812 25.871094 91.890625 25.125 91.890625 24.207031 C 91.890625 23.289062 92.632812 22.542969 93.550781 22.542969 C 94.464844 22.542969 95.207031 23.289062 95.207031 24.207031 Z M 95.207031 24.207031 "/>
<path style=" stroke:none;fill-rule:nonzero;fill:rgb(0.392157%,0.392157%,0.392157%);fill-opacity:1;" d="M 97.40625 29.753906 C 97.40625 30.671875 96.664062 31.417969 95.75 31.417969 C 94.832031 31.417969 94.089844 30.671875 94.089844 29.753906 C 94.089844 28.835938 94.832031 28.089844 95.75 28.089844 C 96.664062 28.089844 97.40625 28.835938 97.40625 29.753906 Z M 97.40625 29.753906 "/>
<path style=" stroke:none;fill-rule:nonzero;fill:rgb(0.392157%,0.392157%,0.392157%);fill-opacity:1;" d="M 100.726562 35.300781 C 100.726562 36.21875 99.980469 36.964844 99.066406 36.964844 C 98.152344 36.964844 97.40625 36.21875 97.40625 35.300781 C 97.40625 34.382812 98.152344 33.636719 99.066406 33.636719 C 99.980469 33.636719 100.726562 34.382812 100.726562 35.300781 Z M 100.726562 35.300781 "/>
<path style=" stroke:none;fill-rule:nonzero;fill:rgb(0.392157%,0.392157%,0.392157%);fill-opacity:1;" d="M 102.925781 40.847656 C 102.925781 41.765625 102.183594 42.511719 101.265625 42.511719 C 100.351562 42.511719 99.609375 41.765625 99.609375 40.847656 C 99.609375 39.929688 100.351562 39.183594 101.265625 39.183594 C 102.183594 39.183594 102.925781 39.929688 102.925781 40.847656 Z M 102.925781 40.847656 "/>
<path style=" stroke:none;fill-rule:nonzero;fill:rgb(0.392157%,0.392157%,0.392157%);fill-opacity:1;" d="M 105.136719 46.394531 C 105.136719 47.3125 104.394531 48.058594 103.476562 48.058594 C 102.5625 48.058594 101.820312 47.3125 101.820312 46.394531 C 101.820312 45.476562 102.5625 44.730469 103.476562 44.730469 C 104.394531 44.730469 105.136719 45.476562 105.136719 46.394531 Z M 105.136719 46.394531 "/>
<path style=" stroke:none;fill-rule:nonzero;fill:rgb(0.392157%,0.392157%,0.392157%);fill-opacity:1;" d="M 108.441406 51.941406 C 108.441406 52.859375 107.699219 53.605469 106.785156 53.605469 C 105.867188 53.605469 105.125 52.859375 105.125 51.941406 C 105.125 51.023438 105.867188 50.277344 106.785156 50.277344 C 107.699219 50.277344 108.441406 51.023438 108.441406 51.941406 Z M 108.441406 51.941406 "/>
<path style=" stroke:none;fill-rule:nonzero;fill:rgb(0.392157%,0.392157%,0.392157%);fill-opacity:1;" d="M 101.820312 26.425781 C 101.820312 27.34375 101.078125 28.089844 100.160156 28.089844 C 99.246094 28.089844 98.503906 27.34375 98.503906 26.425781 C 98.503906 25.507812 99.246094 24.761719 100.160156 24.761719 C 101.078125 24.761719 101.820312 25.507812 101.820312 26.425781 Z M 101.820312 26.425781 "/>
<path style=" stroke:none;fill-rule:nonzero;fill:rgb(0.392157%,0.392157%,0.392157%);fill-opacity:1;" d="M 105.136719 31.972656 C 105.136719 32.890625 104.394531 33.636719 103.476562 33.636719 C 102.5625 33.636719 101.820312 32.890625 101.820312 31.972656 C 101.820312 31.054688 102.5625 30.308594 103.476562 30.308594 C 104.394531 30.308594 105.136719 31.054688 105.136719 31.972656 Z M 105.136719 31.972656 "/>
<path style=" stroke:none;fill-rule:nonzero;fill:rgb(0.392157%,0.392157%,0.392157%);fill-opacity:1;" d="M 107.335938 37.519531 C 107.335938 38.4375 106.59375 39.183594 105.679688 39.183594 C 104.761719 39.183594 104.019531 38.4375 104.019531 37.519531 C 104.019531 36.601562 104.761719 35.855469 105.679688 35.855469 C 106.59375 35.855469 107.335938 36.601562 107.335938 37.519531 Z M 107.335938 37.519531 "/>
<path style=" stroke:none;fill-rule:nonzero;fill:rgb(0.392157%,0.392157%,0.392157%);fill-opacity:1;" d="M 109.546875 43.066406 C 109.546875 43.984375 108.804688 44.730469 107.890625 44.730469 C 106.972656 44.730469 106.230469 43.984375 106.230469 43.066406 C 106.230469 42.148438 106.972656 41.402344 107.890625 41.402344 C 108.804688 41.402344 109.546875 42.148438 109.546875 43.066406 Z M 109.546875 43.066406 "/>
<path style=" stroke:none;fill-rule:nonzero;fill:rgb(0.392157%,0.392157%,0.392157%);fill-opacity:1;" d="M 112.851562 48.613281 C 112.851562 49.53125 112.109375 50.277344 111.195312 50.277344 C 110.277344 50.277344 109.535156 49.53125 109.535156 48.613281 C 109.535156 47.695312 110.277344 46.949219 111.195312 46.949219 C 112.109375 46.949219 112.851562 47.695312 112.851562 48.613281 Z M 112.851562 48.613281 "/>
<path style=" stroke:none;fill-rule:nonzero;fill:rgb(0.392157%,0.392157%,0.392157%);fill-opacity:1;" d="M 45.554688 86.332031 C 45.554688 87.25 44.8125 87.996094 43.898438 87.996094 C 42.980469 87.996094 42.238281 87.25 42.238281 86.332031 C 42.238281 85.414062 42.980469 84.667969 43.898438 84.667969 C 44.8125 84.667969 45.554688 85.414062 45.554688 86.332031 Z M 45.554688 86.332031 "/>
<path style=" stroke:none;fill-rule:nonzero;fill:rgb(0.392157%,0.392157%,0.392157%);fill-opacity:1;" d="M 51.074219 84.113281 C 51.074219 85.03125 50.328125 85.777344 49.414062 85.777344 C 48.5 85.777344 47.753906 85.03125 47.753906 84.113281 C 47.753906 83.195312 48.5 82.449219 49.414062 82.449219 C 50.328125 82.449219 51.074219 83.195312 51.074219 84.113281 Z M 51.074219 84.113281 "/>
<path style=" stroke:none;fill-rule:nonzero;fill:rgb(0.392157%,0.392157%,0.392157%);fill-opacity:1;" d="M 56.589844 81.894531 C 56.589844 82.8125 55.847656 83.558594 54.929688 83.558594 C 54.015625 83.558594 53.273438 82.8125 53.273438 81.894531 C 53.273438 80.976562 54.015625 80.230469 54.929688 80.230469 C 55.847656 80.230469 56.589844 80.976562 56.589844 81.894531 Z M 56.589844 81.894531 "/>
<path style=" stroke:none;fill-rule:nonzero;fill:rgb(0.392157%,0.392157%,0.392157%);fill-opacity:1;" d="M 62.105469 78.566406 C 62.105469 79.484375 61.363281 80.230469 60.449219 80.230469 C 59.53125 80.230469 58.789062 79.484375 58.789062 78.566406 C 58.789062 77.648438 59.53125 76.902344 60.449219 76.902344 C 61.363281 76.902344 62.105469 77.648438 62.105469 78.566406 Z M 62.105469 78.566406 "/>
<path style=" stroke:none;fill-rule:nonzero;fill:rgb(0.392157%,0.392157%,0.392157%);fill-opacity:1;" d="M 67.625 76.347656 C 67.625 77.265625 66.878906 78.011719 65.964844 78.011719 C 65.050781 78.011719 64.304688 77.265625 64.304688 76.347656 C 64.304688 75.429688 65.050781 74.683594 65.964844 74.683594 C 66.878906 74.683594 67.625 75.429688 67.625 76.347656 Z M 67.625 76.347656 "/>
<path style=" stroke:none;fill-rule:nonzero;fill:rgb(0.392157%,0.392157%,0.392157%);fill-opacity:1;" d="M 73.140625 74.128906 C 73.140625 75.046875 72.398438 75.792969 71.480469 75.792969 C 70.566406 75.792969 69.824219 75.046875 69.824219 74.128906 C 69.824219 73.210938 70.566406 72.464844 71.480469 72.464844 C 72.398438 72.464844 73.140625 73.210938 73.140625 74.128906 Z M 73.140625 74.128906 "/>
<path style=" stroke:none;fill-rule:nonzero;fill:rgb(0.392157%,0.392157%,0.392157%);fill-opacity:1;" d="M 77.550781 71.910156 C 77.550781 72.828125 76.808594 73.574219 75.894531 73.574219 C 74.976562 73.574219 74.234375 72.828125 74.234375 71.910156 C 74.234375 70.992188 74.976562 70.246094 75.894531 70.246094 C 76.808594 70.246094 77.550781 70.992188 77.550781 71.910156 Z M 77.550781 71.910156 "/>
<path style=" stroke:none;fill-rule:nonzero;fill:rgb(0.392157%,0.392157%,0.392157%);fill-opacity:1;" d="M 83.070312 68.582031 C 83.070312 69.5 82.324219 70.246094 81.410156 70.246094 C 80.492188 70.246094 79.75 69.5 79.75 68.582031 C 79.75 67.664062 80.492188 66.917969 81.410156 66.917969 C 82.324219 66.917969 83.070312 67.664062 83.070312 68.582031 Z M 83.070312 68.582031 "/>
<path style=" stroke:none;fill-rule:nonzero;fill:rgb(0.392157%,0.392157%,0.392157%);fill-opacity:1;" d="M 85.269531 74.128906 C 85.269531 75.046875 84.527344 75.792969 83.609375 75.792969 C 82.695312 75.792969 81.953125 75.046875 81.953125 74.128906 C 81.953125 73.210938 82.695312 72.464844 83.609375 72.464844 C 84.527344 72.464844 85.269531 73.210938 85.269531 74.128906 Z M 85.269531 74.128906 "/>
<path style=" stroke:none;fill-rule:nonzero;fill:rgb(0.392157%,0.392157%,0.392157%);fill-opacity:1;" d="M 88.585938 66.363281 C 88.585938 67.28125 87.84375 68.027344 86.925781 68.027344 C 86.011719 68.027344 85.269531 67.28125 85.269531 66.363281 C 85.269531 65.445312 86.011719 64.699219 86.925781 64.699219 C 87.84375 64.699219 88.585938 65.445312 88.585938 66.363281 Z M 88.585938 66.363281 "/>
<path style=" stroke:none;fill-rule:nonzero;fill:rgb(0.392157%,0.392157%,0.392157%);fill-opacity:1;" d="M 94.101562 64.144531 C 94.101562 65.0625 93.359375 65.808594 92.445312 65.808594 C 91.527344 65.808594 90.785156 65.0625 90.785156 64.144531 C 90.785156 63.226562 91.527344 62.480469 92.445312 62.480469 C 93.359375 62.480469 94.101562 63.226562 94.101562 64.144531 Z M 94.101562 64.144531 "/>
<path style=" stroke:none;fill-rule:nonzero;fill:rgb(0.392157%,0.392157%,0.392157%);fill-opacity:1;" d="M 99.621094 60.816406 C 99.621094 61.734375 98.875 62.480469 97.960938 62.480469 C 97.046875 62.480469 96.300781 61.734375 96.300781 60.816406 C 96.300781 59.898438 97.046875 59.152344 97.960938 59.152344 C 98.875 59.152344 99.621094 59.898438 99.621094 60.816406 Z M 99.621094 60.816406 "/>
<path style=" stroke:none;fill-rule:nonzero;fill:rgb(0.392157%,0.392157%,0.392157%);fill-opacity:1;" d="M 105.136719 58.597656 C 105.136719 59.515625 104.394531 60.261719 103.476562 60.261719 C 102.5625 60.261719 101.820312 59.515625 101.820312 58.597656 C 101.820312 57.679688 102.5625 56.933594 103.476562 56.933594 C 104.394531 56.933594 105.136719 57.679688 105.136719 58.597656 Z M 105.136719 58.597656 "/>
<path style=" stroke:none;fill-rule:nonzero;fill:rgb(0.392157%,0.392157%,0.392157%);fill-opacity:1;" d="M 110.652344 56.378906 C 110.652344 57.296875 109.910156 58.042969 108.996094 58.042969 C 108.078125 58.042969 107.335938 57.296875 107.335938 56.378906 C 107.335938 55.460938 108.078125 54.714844 108.996094 54.714844 C 109.910156 54.714844 110.652344 55.460938 110.652344 56.378906 Z M 110.652344 56.378906 "/>
<path style=" stroke:none;fill-rule:nonzero;fill:rgb(0.392157%,0.392157%,0.392157%);fill-opacity:1;" d="M 116.171875 54.160156 C 116.171875 55.078125 115.425781 55.824219 114.511719 55.824219 C 113.597656 55.824219 112.851562 55.078125 112.851562 54.160156 C 112.851562 53.242188 113.597656 52.496094 114.511719 52.496094 C 115.425781 52.496094 116.171875 53.242188 116.171875 54.160156 Z M 116.171875 54.160156 "/>
<path style=" stroke:none;fill-rule:nonzero;fill:rgb(0.392157%,0.392157%,0.392157%);fill-opacity:1;" d="M 110.652344 29.753906 C 110.652344 30.671875 109.910156 31.417969 108.996094 31.417969 C 108.078125 31.417969 107.335938 30.671875 107.335938 29.753906 C 107.335938 28.835938 108.078125 28.089844 108.996094 28.089844 C 109.910156 28.089844 110.652344 28.835938 110.652344 29.753906 Z M 110.652344 29.753906 "/>
<path style=" stroke:none;fill-rule:nonzero;fill:rgb(0.392157%,0.392157%,0.392157%);fill-opacity:1;" d="M 112.851562 35.300781 C 112.851562 36.21875 112.109375 36.964844 111.195312 36.964844 C 110.277344 36.964844 109.535156 36.21875 109.535156 35.300781 C 109.535156 34.382812 110.277344 33.636719 111.195312 33.636719 C 112.109375 33.636719 112.851562 34.382812 112.851562 35.300781 Z M 112.851562 35.300781 "/>
<path style=" stroke:none;fill-rule:nonzero;fill:rgb(0.392157%,0.392157%,0.392157%);fill-opacity:1;" d="M 115.0625 40.847656 C 115.0625 41.765625 114.320312 42.511719 113.40625 42.511719 C 112.488281 42.511719 111.746094 41.765625 111.746094 40.847656 C 111.746094 39.929688 112.488281 39.183594 113.40625 39.183594 C 114.320312 39.183594 115.0625 39.929688 115.0625 40.847656 Z M 115.0625 40.847656 "/>
<path style=" stroke:none;fill-rule:nonzero;fill:rgb(0.392157%,0.392157%,0.392157%);fill-opacity:1;" d="M 118.371094 46.394531 C 118.371094 47.3125 117.628906 48.058594 116.710938 48.058594 C 115.796875 48.058594 115.054688 47.3125 115.054688 46.394531 C 115.054688 45.476562 115.796875 44.730469 116.710938 44.730469 C 117.628906 44.730469 118.371094 45.476562 118.371094 46.394531 Z M 118.371094 46.394531 "/>
<path style=" stroke:none;fill-rule:nonzero;fill:rgb(0.392157%,0.392157%,0.392157%);fill-opacity:1;" d="M 121.6875 51.941406 C 121.6875 52.859375 120.945312 53.605469 120.027344 53.605469 C 119.113281 53.605469 118.371094 52.859375 118.371094 51.941406 C 118.371094 51.023438 119.113281 50.277344 120.027344 50.277344 C 120.945312 50.277344 121.6875 51.023438 121.6875 51.941406 Z M 121.6875 51.941406 "/>
<path style=" stroke:none;fill-rule:nonzero;fill:rgb(0.392157%,0.392157%,0.392157%);fill-opacity:1;" d="M 118.371094 33.082031 C 118.371094 34 117.628906 34.746094 116.710938 34.746094 C 115.796875 34.746094 115.054688 34 115.054688 33.082031 C 115.054688 32.164062 115.796875 31.417969 116.710938 31.417969 C 117.628906 31.417969 118.371094 32.164062 118.371094 33.082031 Z M 118.371094 33.082031 "/>
<path style=" stroke:none;fill-rule:nonzero;fill:rgb(0.392157%,0.392157%,0.392157%);fill-opacity:1;" d="M 120.582031 38.628906 C 120.582031 39.546875 119.839844 40.292969 118.921875 40.292969 C 118.007812 40.292969 117.265625 39.546875 117.265625 38.628906 C 117.265625 37.710938 118.007812 36.964844 118.921875 36.964844 C 119.839844 36.964844 120.582031 37.710938 120.582031 38.628906 Z M 120.582031 38.628906 "/>
<path style=" stroke:none;fill-rule:nonzero;fill:rgb(0.392157%,0.392157%,0.392157%);fill-opacity:1;" d="M 123.886719 44.175781 C 123.886719 45.09375 123.144531 45.839844 122.230469 45.839844 C 121.3125 45.839844 120.570312 45.09375 120.570312 44.175781 C 120.570312 43.257812 121.3125 42.511719 122.230469 42.511719 C 123.144531 42.511719 123.886719 43.257812 123.886719 44.175781 Z M 123.886719 44.175781 "/>
<path style=" stroke:none;fill-rule:nonzero;fill:rgb(0.392157%,0.392157%,0.392157%);fill-opacity:1;" d="M 127.203125 49.722656 C 127.203125 50.640625 126.460938 51.386719 125.546875 51.386719 C 124.628906 51.386719 123.886719 50.640625 123.886719 49.722656 C 123.886719 48.804688 124.628906 48.058594 125.546875 48.058594 C 126.460938 48.058594 127.203125 48.804688 127.203125 49.722656 Z M 127.203125 49.722656 "/>
<path style="fill:none;stroke-width:3;stroke-linecap:butt;stroke-linejoin:miter;stroke:rgb(0.392157%,0.392157%,0.392157%);stroke-opacity:1;stroke-miterlimit:10;" d="M 178.560235 62.478288 L 178.560235 71.721159 " transform="matrix(1.105597,0,0,1.109385,0.0491377,0)"/>
<path style="fill:none;stroke-width:3;stroke-linecap:butt;stroke-linejoin:miter;stroke:rgb(0.392157%,0.392157%,0.392157%);stroke-opacity:1;stroke-miterlimit:10;" d="M 191.618788 65.18953 L 107.890005 104.808877 C 103.855139 106.717309 99.187837 106.773647 95.110572 104.960284 L 14.611096 69.108507 C -2.259735 64.819815 2.760883 47.358711 14.328443 41.918621 L 86.429602 7.999925 C 93.457054 4.697139 101.59745 4.742913 108.589571 8.119642 L 196.339087 50.781214 C 206.320259 55.819899 201.33144 60.819852 191.618788 65.18953 Z M 191.618788 65.18953 " transform="matrix(1.105597,0,0,1.109385,0.0491377,0)"/>
<path style="fill-rule:nonzero;fill:rgb(100%,100%,100%);fill-opacity:1;stroke-width:3;stroke-linecap:butt;stroke-linejoin:miter;stroke:rgb(0.392157%,0.392157%,0.392157%);stroke-opacity:1;stroke-miterlimit:10;" d="M 149.931055 28.320157 C 149.931055 23.348373 140.992164 19.320241 129.968711 19.320241 C 118.945257 19.320241 110.0099 23.348373 110.0099 28.320157 C 110.0099 33.291941 118.945257 37.320073 129.968711 37.320073 C 140.992164 37.320073 149.931055 33.291941 149.931055 28.320157 Z M 149.931055 28.320157 " transform="matrix(1.105597,0,0,1.109385,0.0491377,0)"/>
<path style=" stroke:none;fill-rule:nonzero;fill:rgb(0.392157%,0.392157%,0.392157%);fill-opacity:1;" d="M 128.308594 29.753906 C 128.308594 30.671875 127.566406 31.417969 126.652344 31.417969 C 125.734375 31.417969 124.992188 30.671875 124.992188 29.753906 C 124.992188 28.835938 125.734375 28.089844 126.652344 28.089844 C 127.566406 28.089844 128.308594 28.835938 128.308594 29.753906 Z M 128.308594 29.753906 "/>
<path style=" stroke:none;fill-rule:nonzero;fill:rgb(0.392157%,0.392157%,0.392157%);fill-opacity:1;" d="M 133.828125 26.425781 C 133.828125 27.34375 133.082031 28.089844 132.167969 28.089844 C 131.253906 28.089844 130.507812 27.34375 130.507812 26.425781 C 130.507812 25.507812 131.253906 24.761719 132.167969 24.761719 C 133.082031 24.761719 133.828125 25.507812 133.828125 26.425781 Z M 133.828125 26.425781 "/>
<path style=" stroke:none;fill-rule:nonzero;fill:rgb(0.392157%,0.392157%,0.392157%);fill-opacity:1;" d="M 139.34375 24.207031 C 139.34375 25.125 138.601562 25.871094 137.683594 25.871094 C 136.769531 25.871094 136.027344 25.125 136.027344 24.207031 C 136.027344 23.289062 136.769531 22.542969 137.683594 22.542969 C 138.601562 22.542969 139.34375 23.289062 139.34375 24.207031 Z M 139.34375 24.207031 "/>
<path style=" stroke:none;fill-rule:nonzero;fill:rgb(0.392157%,0.392157%,0.392157%);fill-opacity:1;" d="M 144.859375 21.988281 C 144.859375 22.90625 144.117188 23.652344 143.203125 23.652344 C 142.285156 23.652344 141.542969 22.90625 141.542969 21.988281 C 141.542969 21.070312 142.285156 20.324219 143.203125 20.324219 C 144.117188 20.324219 144.859375 21.070312 144.859375 21.988281 Z M 144.859375 21.988281 "/>
<path style=" stroke:none;fill-rule:nonzero;fill:rgb(0.392157%,0.392157%,0.392157%);fill-opacity:1;" d="M 130.507812 35.300781 C 130.507812 36.21875 129.765625 36.964844 128.851562 36.964844 C 127.933594 36.964844 127.191406 36.21875 127.191406 35.300781 C 127.191406 34.382812 127.933594 33.636719 128.851562 33.636719 C 129.765625 33.636719 130.507812 34.382812 130.507812 35.300781 Z M 130.507812 35.300781 "/>
<path style=" stroke:none;fill-rule:nonzero;fill:rgb(0.392157%,0.392157%,0.392157%);fill-opacity:1;" d="M 147.058594 27.535156 C 147.058594 28.453125 146.316406 29.199219 145.402344 29.199219 C 144.484375 29.199219 143.742188 28.453125 143.742188 27.535156 C 143.742188 26.617188 144.484375 25.871094 145.402344 25.871094 C 146.316406 25.871094 147.058594 26.617188 147.058594 27.535156 Z M 147.058594 27.535156 "/>
<path style=" stroke:none;fill-rule:nonzero;fill:rgb(0.392157%,0.392157%,0.392157%);fill-opacity:1;" d="M 138.238281 37.519531 C 138.238281 38.4375 137.496094 39.183594 136.578125 39.183594 C 135.664062 39.183594 134.921875 38.4375 134.921875 37.519531 C 134.921875 36.601562 135.664062 35.855469 136.578125 35.855469 C 137.496094 35.855469 138.238281 36.601562 138.238281 37.519531 Z M 138.238281 37.519531 "/>
<path style=" stroke:none;fill-rule:nonzero;fill:rgb(0.392157%,0.392157%,0.392157%);fill-opacity:1;" d="M 155.894531 28.644531 C 155.894531 29.5625 155.152344 30.308594 154.234375 30.308594 C 153.320312 30.308594 152.578125 29.5625 152.578125 28.644531 C 152.578125 27.726562 153.320312 26.980469 154.234375 26.980469 C 155.152344 26.980469 155.894531 27.726562 155.894531 28.644531 Z M 155.894531 28.644531 "/>
<path style=" stroke:none;fill-rule:nonzero;fill:rgb(0.392157%,0.392157%,0.392157%);fill-opacity:1;" d="M 161.410156 25.316406 C 161.410156 26.234375 160.667969 26.980469 159.753906 26.980469 C 158.835938 26.980469 158.09375 26.234375 158.09375 25.316406 C 158.09375 24.398438 158.835938 23.652344 159.753906 23.652344 C 160.667969 23.652344 161.410156 24.398438 161.410156 25.316406 Z M 161.410156 25.316406 "/>
<path style=" stroke:none;fill-rule:nonzero;fill:rgb(0.392157%,0.392157%,0.392157%);fill-opacity:1;" d="M 155.894531 36.410156 C 155.894531 37.328125 155.152344 38.074219 154.234375 38.074219 C 153.320312 38.074219 152.578125 37.328125 152.578125 36.410156 C 152.578125 35.492188 153.320312 34.746094 154.234375 34.746094 C 155.152344 34.746094 155.894531 35.492188 155.894531 36.410156 Z M 155.894531 36.410156 "/>
<path style=" stroke:none;fill-rule:nonzero;fill:rgb(0.392157%,0.392157%,0.392157%);fill-opacity:1;" d="M 149.273438 40.847656 C 149.273438 41.765625 148.527344 42.511719 147.613281 42.511719 C 146.699219 42.511719 145.953125 41.765625 145.953125 40.847656 C 145.953125 39.929688 146.699219 39.183594 147.613281 39.183594 C 148.527344 39.183594 149.273438 39.929688 149.273438 40.847656 Z M 149.273438 40.847656 "/>
<path style=" stroke:none;fill-rule:nonzero;fill:rgb(0.392157%,0.392157%,0.392157%);fill-opacity:1;" d="M 162.503906 33.082031 C 162.503906 34 161.761719 34.746094 160.847656 34.746094 C 159.929688 34.746094 159.1875 34 159.1875 33.082031 C 159.1875 32.164062 159.929688 31.417969 160.847656 31.417969 C 161.761719 31.417969 162.503906 32.164062 162.503906 33.082031 Z M 162.503906 33.082031 "/>
<path style=" stroke:none;fill-rule:nonzero;fill:rgb(91.764706%,28.627451%,44.705882%);fill-opacity:1;" d="M 154.777344 31.972656 C 154.777344 29.214844 149.835938 26.980469 143.742188 26.980469 C 137.648438 26.980469 132.710938 29.214844 132.710938 31.972656 C 132.710938 34.730469 137.648438 36.964844 143.742188 36.964844 C 149.835938 36.964844 154.777344 34.730469 154.777344 31.972656 Z M 154.777344 31.972656 "/>
<path style="fill-rule:nonzero;fill:rgb(100%,100%,100%);fill-opacity:1;stroke-width:3;stroke-linecap:butt;stroke-linejoin:miter;stroke:rgb(0.392157%,0.392157%,0.392157%);stroke-opacity:1;stroke-miterlimit:10;" d="M 121.99084 12.320307 C 121.99084 7.348523 113.051949 3.320391 102.028496 3.320391 C 91.005042 3.320391 82.069685 7.348523 82.069685 12.320307 C 82.069685 17.292091 91.005042 21.320223 102.028496 21.320223 C 113.051949 21.320223 121.99084 17.292091 121.99084 12.320307 Z M 121.99084 12.320307 " transform="matrix(1.105597,0,0,1.109385,0.0491377,0)"/>
<path style=" stroke:none;fill-rule:nonzero;fill:rgb(0.392157%,0.392157%,0.392157%);fill-opacity:1;" d="M 98.511719 14.222656 C 98.511719 15.140625 97.769531 15.886719 96.855469 15.886719 C 95.9375 15.886719 95.195312 15.140625 95.195312 14.222656 C 95.195312 13.304688 95.9375 12.558594 96.855469 12.558594 C 97.769531 12.558594 98.511719 13.304688 98.511719 14.222656 Z M 98.511719 14.222656 "/>
<path style=" stroke:none;fill-rule:nonzero;fill:rgb(0.392157%,0.392157%,0.392157%);fill-opacity:1;" d="M 104.03125 10.894531 C 104.03125 11.8125 103.289062 12.558594 102.371094 12.558594 C 101.457031 12.558594 100.714844 11.8125 100.714844 10.894531 C 100.714844 9.976562 101.457031 9.230469 102.371094 9.230469 C 103.289062 9.230469 104.03125 9.976562 104.03125 10.894531 Z M 104.03125 10.894531 "/>
<path style=" stroke:none;fill-rule:nonzero;fill:rgb(0.392157%,0.392157%,0.392157%);fill-opacity:1;" d="M 109.546875 8.675781 C 109.546875 9.59375 108.804688 10.339844 107.890625 10.339844 C 106.972656 10.339844 106.230469 9.59375 106.230469 8.675781 C 106.230469 7.757812 106.972656 7.011719 107.890625 7.011719 C 108.804688 7.011719 109.546875 7.757812 109.546875 8.675781 Z M 109.546875 8.675781 "/>
<path style=" stroke:none;fill-rule:nonzero;fill:rgb(0.392157%,0.392157%,0.392157%);fill-opacity:1;" d="M 115.0625 6.457031 C 115.0625 7.375 114.320312 8.121094 113.40625 8.121094 C 112.488281 8.121094 111.746094 7.375 111.746094 6.457031 C 111.746094 5.539062 112.488281 4.792969 113.40625 4.792969 C 114.320312 4.792969 115.0625 5.539062 115.0625 6.457031 Z M 115.0625 6.457031 "/>
<path style=" stroke:none;fill-rule:nonzero;fill:rgb(0.392157%,0.392157%,0.392157%);fill-opacity:1;" d="M 100.726562 19.769531 C 100.726562 20.6875 99.980469 21.433594 99.066406 21.433594 C 98.152344 21.433594 97.40625 20.6875 97.40625 19.769531 C 97.40625 18.851562 98.152344 18.105469 99.066406 18.105469 C 99.980469 18.105469 100.726562 18.851562 100.726562 19.769531 Z M 100.726562 19.769531 "/>
<path style=" stroke:none;fill-rule:nonzero;fill:rgb(0.392157%,0.392157%,0.392157%);fill-opacity:1;" d="M 106.242188 16.441406 C 106.242188 17.359375 105.5 18.105469 104.582031 18.105469 C 103.667969 18.105469 102.925781 17.359375 102.925781 16.441406 C 102.925781 15.523438 103.667969 14.777344 104.582031 14.777344 C 105.5 14.777344 106.242188 15.523438 106.242188 16.441406 Z M 106.242188 16.441406 "/>
<path style=" stroke:none;fill-rule:nonzero;fill:rgb(0.392157%,0.392157%,0.392157%);fill-opacity:1;" d="M 108.441406 21.988281 C 108.441406 22.90625 107.699219 23.652344 106.785156 23.652344 C 105.867188 23.652344 105.125 22.90625 105.125 21.988281 C 105.125 21.070312 105.867188 20.324219 106.785156 20.324219 C 107.699219 20.324219 108.441406 21.070312 108.441406 21.988281 Z M 108.441406 21.988281 "/>
<path style=" stroke:none;fill-rule:nonzero;fill:rgb(0.392157%,0.392157%,0.392157%);fill-opacity:1;" d="M 113.957031 19.769531 C 113.957031 20.6875 113.214844 21.433594 112.300781 21.433594 C 111.382812 21.433594 110.640625 20.6875 110.640625 19.769531 C 110.640625 18.851562 111.382812 18.105469 112.300781 18.105469 C 113.214844 18.105469 113.957031 18.851562 113.957031 19.769531 Z M 113.957031 19.769531 "/>
<path style=" stroke:none;fill-rule:nonzero;fill:rgb(0.392157%,0.392157%,0.392157%);fill-opacity:1;" d="M 119.476562 17.550781 C 119.476562 18.46875 118.734375 19.214844 117.816406 19.214844 C 116.902344 19.214844 116.160156 18.46875 116.160156 17.550781 C 116.160156 16.632812 116.902344 15.886719 117.816406 15.886719 C 118.734375 15.886719 119.476562 16.632812 119.476562 17.550781 Z M 119.476562 17.550781 "/>
<path style=" stroke:none;fill-rule:nonzero;fill:rgb(0.392157%,0.392157%,0.392157%);fill-opacity:1;" d="M 123.886719 7.566406 C 123.886719 8.484375 123.144531 9.230469 122.230469 9.230469 C 121.3125 9.230469 120.570312 8.484375 120.570312 7.566406 C 120.570312 6.648438 121.3125 5.902344 122.230469 5.902344 C 123.144531 5.902344 123.886719 6.648438 123.886719 7.566406 Z M 123.886719 7.566406 "/>
<path style=" stroke:none;fill-rule:nonzero;fill:rgb(0.392157%,0.392157%,0.392157%);fill-opacity:1;" d="M 126.097656 13.113281 C 126.097656 14.03125 125.355469 14.777344 124.441406 14.777344 C 123.523438 14.777344 122.78125 14.03125 122.78125 13.113281 C 122.78125 12.195312 123.523438 11.449219 124.441406 11.449219 C 125.355469 11.449219 126.097656 12.195312 126.097656 13.113281 Z M 126.097656 13.113281 "/>
<path style=" stroke:none;fill-rule:nonzero;fill:rgb(0.392157%,0.392157%,0.392157%);fill-opacity:1;" d="M 131.613281 9.785156 C 131.613281 10.703125 130.871094 11.449219 129.957031 11.449219 C 129.039062 11.449219 128.296875 10.703125 128.296875 9.785156 C 128.296875 8.867188 129.039062 8.121094 129.957031 8.121094 C 130.871094 8.121094 131.613281 8.867188 131.613281 9.785156 Z M 131.613281 9.785156 "/>
<path style=" stroke:none;fill-rule:nonzero;fill:rgb(0.392157%,0.392157%,0.392157%);fill-opacity:1;" d="M 126.097656 20.878906 C 126.097656 21.796875 125.355469 22.542969 124.441406 22.542969 C 123.523438 22.542969 122.78125 21.796875 122.78125 20.878906 C 122.78125 19.960938 123.523438 19.214844 124.441406 19.214844 C 125.355469 19.214844 126.097656 19.960938 126.097656 20.878906 Z M 126.097656 20.878906 "/>
<path style=" stroke:none;fill-rule:nonzero;fill:rgb(0.392157%,0.392157%,0.392157%);fill-opacity:1;" d="M 132.722656 17.550781 C 132.722656 18.46875 131.976562 19.214844 131.0625 19.214844 C 130.148438 19.214844 129.402344 18.46875 129.402344 17.550781 C 129.402344 16.632812 130.148438 15.886719 131.0625 15.886719 C 131.976562 15.886719 132.722656 16.632812 132.722656 17.550781 Z M 132.722656 17.550781 "/>
<path style=" stroke:none;fill-rule:nonzero;fill:rgb(91.764706%,28.627451%,44.705882%);fill-opacity:1;" d="M 123.886719 12.558594 C 123.886719 9.800781 118.945312 7.566406 112.851562 7.566406 C 106.757812 7.566406 101.820312 9.800781 101.820312 12.558594 C 101.820312 15.316406 106.757812 17.550781 112.851562 17.550781 C 118.945312 17.550781 123.886719 15.316406 123.886719 12.558594 Z M 123.886719 12.558594 "/>
<path style="fill-rule:nonzero;fill:rgb(98.431373%,96.862745%,78.823529%);fill-opacity:1;stroke-width:3;stroke-linecap:butt;stroke-linejoin:miter;stroke:rgb(0.392157%,0.392157%,0.392157%);stroke-opacity:1;stroke-miterlimit:10;" d="M 113.850443 47.400964 L 123.139116 42.739036 C 127.477834 40.555958 132.565582 40.436241 136.999696 42.411574 L 177.101041 60.20014 C 177.970198 60.583939 178.54257 61.436044 178.567302 62.39026 C 178.592034 63.340955 178.06206 64.22475 177.210569 64.650802 L 168.211615 69.161323 C 164.21208 71.154263 159.534178 71.263416 155.449848 69.460616 L 113.931706 51.05938 C 113.196809 50.756566 112.712766 50.048827 112.6951 49.25658 C 112.677435 48.464334 113.133212 47.735468 113.850443 47.400964 Z M 113.850443 47.400964 " transform="matrix(1.105597,0,0,1.109385,0.0491377,0)"/>
<path style=" stroke:none;fill-rule:nonzero;fill:rgb(0.392157%,0.392157%,0.392157%);fill-opacity:1;" d="M 143.742188 72.917969 L 143.203125 65.253906 L 166.363281 53.050781 L 177.398438 58.597656 L 155.332031 70.800781 L 154.234375 83.003906 Z M 143.742188 72.917969 "/>
<path style="fill:none;stroke-width:3;stroke-linecap:round;stroke-linejoin:round;stroke:rgb(0.392157%,0.392157%,0.392157%);stroke-opacity:1;stroke-miterlimit:4;" d="M 122.489015 12.820302 L 122.489015 19.820237 " transform="matrix(1.105597,0,0,1.109385,0.0491377,0)"/>
<path style="fill:none;stroke-width:3;stroke-linecap:butt;stroke-linejoin:miter;stroke:rgb(0.392157%,0.392157%,0.392157%);stroke-opacity:1;stroke-miterlimit:10;" d="M 3.728969 64.819815 L 3.820831 55.819899 " transform="matrix(1.105597,0,0,1.109385,0.0491377,0)"/>
</g>
</svg>
