<svg id="Calque_1" data-name="Calque 1" xmlns="http://www.w3.org/2000/svg" viewBox="0 0 205.23 135.21"><defs><style>.cls-1,.cls-14{fill:#fff;}.cls-1{stroke:#0c7377;}.cls-1,.cls-10,.cls-14,.cls-16,.cls-2,.cls-3,.cls-5,.cls-6,.cls-9{stroke-miterlimit:10;}.cls-1,.cls-10,.cls-11,.cls-13,.cls-14,.cls-16,.cls-17,.cls-2,.cls-3,.cls-5,.cls-6,.cls-9{stroke-width:3px;}.cls-2{fill:#f3efe4;}.cls-10,.cls-11,.cls-13,.cls-14,.cls-16,.cls-17,.cls-2,.cls-3,.cls-5,.cls-6,.cls-9{stroke:#010101;}.cls-10,.cls-11,.cls-3{fill:none;}.cls-4{fill:#1b5c54;}.cls-5{fill:#48beb4;}.cls-15,.cls-6{fill:#ea4972;}.cls-7{fill:#010101;}.cls-17,.cls-8{fill:#271d21;}.cls-9{fill:#f49463;}.cls-10,.cls-17{stroke-linecap:round;}.cls-11,.cls-13,.cls-17{stroke-linejoin:round;}.cls-12{fill:#fee266;}.cls-13{fill:#fcd530;}.cls-16{fill:#fbf7c9;}</style></defs><title>Plan de travail 1</title><path class="cls-1" d="M191.62,65.19l-83.73,39.62a15.33,15.33,0,0,1-12.78.15L14.61,69.11a15,15,0,0,1-.28-27.19L86.43,8a25.76,25.76,0,0,1,22.16.12l87.75,42.66C206.32,55.82,201.33,60.82,191.62,65.19Z"/><polygon class="cls-2" points="31.17 34.82 47.14 26.82 59.12 22.32 67.9 19.32 78.08 18.82 85.06 19.09 92.41 21.82 105.03 26.32 110.02 30.32 116.17 37.32 118 39.32 117 44.32 113.01 49.32 110.02 52.82 108.02 54.32 102.76 54.08 91.55 55.82 86.56 58.82 82.57 61.82 79.58 64.82 78.58 68.82 81.07 73.32 74.59 70.32 69.1 68.82 64.61 68.82 60.12 72.32 56.12 73.32 51.63 74.82 50.3 78.12 49.64 81.34 48.14 83.36 9.72 65.82 7.22 62.82 5.72 55.82 6.08 52.32 7.22 49.32 8.72 46.76 11.49 43.82 16.76 41.02 31.17 34.82"/><path class="cls-3" d="M108,54.32s11-11,10-15c-.88-3.53-11.85-11.72-14.43-13.61a5.15,5.15,0,0,0-1.15-.63L88.71,19.61a5.4,5.4,0,0,0-1.53-.35l-11.83-.92a4.12,4.12,0,0,0-.61,0c-1.63.06-9,.59-18.62,5C45.9,28,22.68,38.71,19.55,40.16c-.21.09-.41.17-.63.24C17,41,6.72,42.82,5.72,55.82c-.22,2.91,4,9.23,4,10l33.15,17a5.22,5.22,0,0,0,7.43-4.74h0"/><path class="cls-4" d="M155.66,30.9l-.24,5.92,37.93,18-.62,4-2.22,2.28-2.15,2.67,3,1,7.39-3.67s7.39-4.81-1-9.57S155.66,30.9,155.66,30.9Z"/><path class="cls-5" d="M3.73,64.82l-.4,19.44A7.81,7.81,0,0,0,7.8,91.47L87.38,128.9a32.65,32.65,0,0,0,27.39.18l79.92-37A10.68,10.68,0,0,0,201,82.56l.38-22.74-93.69,45.82a17.87,17.87,0,0,1-15.27.14Z"/><path class="cls-6" d="M105.11,98.12l10.17-4.25a1.85,1.85,0,0,0,.11-3.36L76,70.79a16.25,16.25,0,0,0-14-.26l-10.3,4.69a2.47,2.47,0,0,0-.11,4.44L85.37,97.27A23.29,23.29,0,0,0,105.11,98.12Z"/><polygon class="cls-7" points="68.1 94.32 68.1 88.32 88.28 76.93 99.22 82.41 77.84 93.34 78.08 99.32 68.1 94.32"/><line class="cls-3" x1="116.5" y1="92.32" x2="116.5" y2="101.32"/><polygon class="cls-8" points="116.17 34.82 118 39.32 117 44.32 117 46.32 122.99 42.32 128.76 41.11 132.97 42.32 136.96 42.32 139.96 40.57 143.95 37.32 151.93 33.32 152.93 31.32 152.44 29.48 150.93 29.32 147.54 32.82 143.95 35.32 137.96 36.82 131.97 37.32 126.48 37.18 119.5 35.98 116.17 34.82"/><polygon class="cls-4" points="138.46 42.82 154.43 32.82 154.78 36.82 150.28 40.79 149.11 44.82 149.44 47.82 138.46 42.82"/><path class="cls-9" d="M79.58,63.82l15-9c11.47-2.5,22.75,1.77,29.35,6.45a42,42,0,0,1,7.17,6.47c3.2,3.62,9.31,10.15,12.88,11.58a5.91,5.91,0,0,1,3.64,7l-18.44,8.91C121.34,94.18,114,82.32,114,82.32c-14-22-34.93-18-34.93-18l0,8"/><path class="cls-10" d="M27.68,65.82s23,12,39.92-1"/><polygon class="cls-8" points="69.1 17.32 79.08 11.49 81.07 10.82 83.07 15.13 87.06 19.32 91.18 20.24 96.04 21.32 106.02 21.32 115 19.16 118 17.32 121.99 15.32 126.48 17.32 127.98 19.32 122.99 19.89 117.5 21.82 113.42 23.82 110.02 28.32 109.53 30.32 105.03 26.32 100.53 23.82 96.04 22.53 86.06 20.57 80.08 19.32 69.1 17.32"/><polygon class="cls-7" points="99.04 81.32 99.04 68.54 120.21 58.98 128.27 64.86 107.39 74.66 107.32 86.47 99.04 81.32"/><polyline class="cls-11" points="137.46 41.82 155.66 30.89 155.42 35.82"/><polygon class="cls-12" points="175.38 56.82 181.87 56.42 189.19 55.38 192.56 54.66 193.85 55.74 192.14 59.82 187.08 63.96 182.75 66.28 178.56 67.64 178.18 63.78 178.14 60.32 174.63 59.11 175.38 56.82"/><path class="cls-13" d="M155.92,36.32l37.93,18s-19.37,5.86-35.93-2C139,43.32,155.92,36.32,155.92,36.32Z"/><polyline class="cls-3" points="157.92 52.32 171.89 45.32 172.81 56.42"/><line class="cls-3" x1="148.94" y1="43.88" x2="171.39" y2="44.82"/><path class="cls-3" d="M138,70.32l12,6a18.15,18.15,0,0,0,13.1,2.4"/><circle class="cls-7" cx="8.72" cy="50.82" r="1.5"/><circle class="cls-7" cx="10.71" cy="55.82" r="1.5"/><circle class="cls-7" cx="13.71" cy="60.82" r="1.5"/><circle class="cls-7" cx="15.7" cy="65.82" r="1.5"/><circle class="cls-7" cx="13.71" cy="48.82" r="1.5"/><circle class="cls-7" cx="18.7" cy="46.82" r="1.5"/><circle class="cls-7" cx="23.69" cy="43.82" r="1.5"/><circle class="cls-7" cx="28.68" cy="41.82" r="1.5"/><circle class="cls-7" cx="33.67" cy="39.82" r="1.5"/><circle class="cls-7" cx="37.66" cy="37.82" r="1.5"/><circle class="cls-7" cx="42.65" cy="34.82" r="1.5"/><circle class="cls-7" cx="47.64" cy="32.82" r="1.5"/><circle class="cls-7" cx="52.63" cy="30.82" r="1.5"/><circle class="cls-7" cx="57.62" cy="27.82" r="1.5"/><circle class="cls-7" cx="62.61" cy="25.82" r="1.5"/><circle class="cls-7" cx="67.6" cy="23.82" r="1.5"/><circle class="cls-7" cx="72.59" cy="21.82" r="1.5"/><circle class="cls-7" cx="15.7" cy="52.82" r="1.5"/><circle class="cls-7" cx="20.69" cy="50.82" r="1.5"/><circle class="cls-7" cx="25.68" cy="48.82" r="1.5"/><circle class="cls-7" cx="30.67" cy="45.82" r="1.5"/><circle class="cls-7" cx="35.66" cy="43.82" r="1.5"/><circle class="cls-7" cx="40.65" cy="41.82" r="1.5"/><circle class="cls-7" cx="44.65" cy="39.82" r="1.5"/><circle class="cls-7" cx="49.64" cy="36.82" r="1.5"/><circle class="cls-7" cx="54.63" cy="34.82" r="1.5"/><circle class="cls-7" cx="59.62" cy="32.82" r="1.5"/><circle class="cls-7" cx="64.61" cy="29.82" r="1.5"/><circle class="cls-7" cx="69.6" cy="27.82" r="1.5"/><circle class="cls-7" cx="74.59" cy="25.82" r="1.5"/><circle class="cls-7" cx="79.58" cy="23.82" r="1.5"/><circle class="cls-7" cx="17.7" cy="57.82" r="1.5"/><circle class="cls-7" cx="22.69" cy="55.82" r="1.5"/><circle class="cls-7" cx="27.68" cy="53.82" r="1.5"/><circle class="cls-7" cx="32.67" cy="50.82" r="1.5"/><circle class="cls-7" cx="37.66" cy="48.82" r="1.5"/><circle class="cls-7" cx="42.65" cy="46.82" r="1.5"/><circle class="cls-7" cx="46.64" cy="44.82" r="1.5"/><circle class="cls-7" cx="51.63" cy="41.82" r="1.5"/><circle class="cls-7" cx="56.62" cy="39.82" r="1.5"/><circle class="cls-7" cx="61.61" cy="37.82" r="1.5"/><circle class="cls-7" cx="66.6" cy="34.82" r="1.5"/><circle class="cls-7" cx="71.59" cy="32.82" r="1.5"/><circle class="cls-7" cx="76.58" cy="30.82" r="1.5"/><circle class="cls-7" cx="81.57" cy="28.82" r="1.5"/><circle class="cls-7" cx="20.69" cy="62.82" r="1.5"/><circle class="cls-7" cx="25.68" cy="60.82" r="1.5"/><circle class="cls-7" cx="30.67" cy="58.82" r="1.5"/><circle class="cls-7" cx="35.66" cy="55.82" r="1.5"/><circle class="cls-7" cx="40.65" cy="53.82" r="1.5"/><circle class="cls-7" cx="45.64" cy="51.82" r="1.5"/><circle class="cls-7" cx="49.64" cy="49.82" r="1.5"/><circle class="cls-7" cx="54.63" cy="46.82" r="1.5"/><circle class="cls-7" cx="59.62" cy="44.82" r="1.5"/><circle class="cls-7" cx="64.61" cy="42.82" r="1.5"/><circle class="cls-7" cx="69.6" cy="39.82" r="1.5"/><circle class="cls-7" cx="74.59" cy="37.82" r="1.5"/><circle class="cls-7" cx="79.58" cy="35.82" r="1.5"/><circle class="cls-7" cx="84.57" cy="33.82" r="1.5"/><circle class="cls-7" cx="22.69" cy="67.82" r="1.5"/><circle class="cls-7" cx="27.68" cy="65.82" r="1.5"/><circle class="cls-7" cx="32.67" cy="63.82" r="1.5"/><circle class="cls-7" cx="37.66" cy="60.82" r="1.5"/><circle class="cls-7" cx="42.65" cy="58.82" r="1.5"/><circle class="cls-7" cx="47.64" cy="56.82" r="1.5"/><circle class="cls-7" cx="51.63" cy="54.82" r="1.5"/><circle class="cls-7" cx="56.62" cy="51.82" r="1.5"/><circle class="cls-7" cx="61.61" cy="49.82" r="1.5"/><circle class="cls-7" cx="66.6" cy="47.82" r="1.5"/><circle class="cls-7" cx="71.59" cy="44.82" r="1.5"/><circle class="cls-7" cx="76.58" cy="42.82" r="1.5"/><circle class="cls-7" cx="81.57" cy="40.82" r="1.5"/><circle class="cls-7" cx="86.56" cy="38.82" r="1.5"/><circle class="cls-7" cx="24.69" cy="72.82" r="1.5"/><circle class="cls-7" cx="29.68" cy="70.82" r="1.5"/><circle class="cls-7" cx="34.67" cy="68.82" r="1.5"/><circle class="cls-7" cx="39.66" cy="65.82" r="1.5"/><circle class="cls-7" cx="44.65" cy="63.82" r="1.5"/><circle class="cls-7" cx="49.64" cy="61.82" r="1.5"/><circle class="cls-7" cx="53.63" cy="59.82" r="1.5"/><circle class="cls-7" cx="58.62" cy="56.82" r="1.5"/><circle class="cls-7" cx="63.61" cy="54.82" r="1.5"/><circle class="cls-7" cx="68.6" cy="52.82" r="1.5"/><circle class="cls-7" cx="99.54" cy="12.82" r="1.5"/><path class="cls-10" d="M194.35,54.82s-2.63,9.63-15.79,12.82"/><circle class="cls-7" cx="104.53" cy="10.82" r="1.5"/><circle class="cls-7" cx="121.49" cy="28.82" r="1.5"/><circle class="cls-7" cx="126.48" cy="26.82" r="1.5"/><circle class="cls-7" cx="128.48" cy="31.82" r="1.5"/><circle class="cls-7" cx="133.47" cy="29.82" r="1.5"/><circle class="cls-7" cx="137.46" cy="20.82" r="1.5"/><circle class="cls-7" cx="183.37" cy="61.82" r="1.5"/><circle class="cls-7" cx="73.59" cy="49.82" r="1.5"/><circle class="cls-7" cx="78.58" cy="47.82" r="1.5"/><circle class="cls-7" cx="83.57" cy="45.82" r="1.5"/><circle class="cls-7" cx="88.56" cy="43.82" r="1.5"/><circle class="cls-7" cx="32.67" cy="75.82" r="1.5"/><circle class="cls-7" cx="37.66" cy="73.82" r="1.5"/><circle class="cls-7" cx="42.65" cy="70.82" r="1.5"/><circle class="cls-7" cx="47.64" cy="68.82" r="1.5"/><circle class="cls-7" cx="52.63" cy="66.82" r="1.5"/><circle class="cls-7" cx="56.62" cy="64.82" r="1.5"/><circle class="cls-7" cx="61.61" cy="61.82" r="1.5"/><circle class="cls-7" cx="66.6" cy="59.82" r="1.5"/><circle class="cls-7" cx="71.59" cy="57.82" r="1.5"/><circle class="cls-7" cx="76.58" cy="54.82" r="1.5"/><circle class="cls-7" cx="81.57" cy="52.82" r="1.5"/><circle class="cls-7" cx="86.56" cy="50.82" r="1.5"/><circle class="cls-7" cx="91.55" cy="48.82" r="1.5"/><circle class="cls-7" cx="84.57" cy="21.82" r="1.5"/><circle class="cls-7" cx="86.56" cy="26.82" r="1.5"/><circle class="cls-7" cx="89.56" cy="31.82" r="1.5"/><circle class="cls-7" cx="91.55" cy="36.82" r="1.5"/><circle class="cls-7" cx="93.55" cy="41.82" r="1.5"/><circle class="cls-7" cx="96.54" cy="46.82" r="1.5"/><circle class="cls-7" cx="90.55" cy="23.82" r="1.5"/><circle class="cls-7" cx="93.55" cy="28.82" r="1.5"/><circle class="cls-7" cx="95.54" cy="33.82" r="1.5"/><circle class="cls-7" cx="97.54" cy="38.82" r="1.5"/><circle class="cls-7" cx="100.53" cy="43.82" r="1.5"/><circle class="cls-7" cx="39.66" cy="77.82" r="1.5"/><circle class="cls-7" cx="44.65" cy="75.82" r="1.5"/><circle class="cls-7" cx="49.64" cy="73.82" r="1.5"/><circle class="cls-7" cx="54.63" cy="70.82" r="1.5"/><circle class="cls-7" cx="59.62" cy="68.82" r="1.5"/><circle class="cls-7" cx="64.61" cy="66.82" r="1.5"/><circle class="cls-7" cx="68.6" cy="64.82" r="1.5"/><circle class="cls-7" cx="73.59" cy="61.82" r="1.5"/><circle class="cls-7" cx="75.58" cy="66.82" r="1.5"/><circle class="cls-7" cx="78.58" cy="59.82" r="1.5"/><circle class="cls-7" cx="83.57" cy="57.82" r="1.5"/><circle class="cls-7" cx="88.56" cy="54.82" r="1.5"/><circle class="cls-7" cx="93.55" cy="52.82" r="1.5"/><circle class="cls-7" cx="98.54" cy="50.82" r="1.5"/><circle class="cls-7" cx="103.53" cy="48.82" r="1.5"/><circle class="cls-7" cx="98.54" cy="26.82" r="1.5"/><circle class="cls-7" cx="100.53" cy="31.82" r="1.5"/><circle class="cls-7" cx="102.53" cy="36.82" r="1.5"/><circle class="cls-7" cx="105.52" cy="41.82" r="1.5"/><circle class="cls-7" cx="108.52" cy="46.82" r="1.5"/><circle class="cls-7" cx="105.52" cy="29.82" r="1.5"/><circle class="cls-7" cx="107.52" cy="34.82" r="1.5"/><circle class="cls-7" cx="110.51" cy="39.82" r="1.5"/><circle class="cls-7" cx="113.51" cy="44.82" r="1.5"/><line class="cls-3" x1="178.56" y1="62.48" x2="178.56" y2="71.72"/><path class="cls-3" d="M191.62,65.19l-83.73,39.62a15.33,15.33,0,0,1-12.78.15L14.61,69.11c-16.87-4.29-11.85-21.75-.28-27.19L86.43,8a25.76,25.76,0,0,1,22.16.12l87.75,42.66C206.32,55.82,201.33,60.82,191.62,65.19Z"/><ellipse class="cls-14" cx="129.97" cy="28.32" rx="19.96" ry="9"/><circle class="cls-7" cx="114.51" cy="26.82" r="1.5"/><circle class="cls-7" cx="119.5" cy="23.82" r="1.5"/><circle class="cls-7" cx="124.49" cy="21.82" r="1.5"/><circle class="cls-7" cx="129.48" cy="19.82" r="1.5"/><circle class="cls-7" cx="116.5" cy="31.82" r="1.5"/><circle class="cls-7" cx="131.47" cy="24.82" r="1.5"/><circle class="cls-7" cx="123.49" cy="33.82" r="1.5"/><circle class="cls-7" cx="139.46" cy="25.82" r="1.5"/><circle class="cls-7" cx="144.45" cy="22.82" r="1.5"/><circle class="cls-7" cx="139.46" cy="32.82" r="1.5"/><circle class="cls-7" cx="133.47" cy="36.82" r="1.5"/><circle class="cls-7" cx="145.44" cy="29.82" r="1.5"/><ellipse class="cls-15" cx="129.97" cy="28.82" rx="9.98" ry="4.5"/><ellipse class="cls-14" cx="102.03" cy="12.32" rx="19.96" ry="9"/><circle class="cls-7" cx="87.56" cy="12.82" r="1.5"/><circle class="cls-7" cx="92.55" cy="9.82" r="1.5"/><circle class="cls-7" cx="97.54" cy="7.82" r="1.5"/><circle class="cls-7" cx="102.53" cy="5.82" r="1.5"/><circle class="cls-7" cx="89.56" cy="17.82" r="1.5"/><circle class="cls-7" cx="94.55" cy="14.82" r="1.5"/><circle class="cls-7" cx="96.54" cy="19.82" r="1.5"/><circle class="cls-7" cx="101.53" cy="17.82" r="1.5"/><circle class="cls-7" cx="106.52" cy="15.82" r="1.5"/><circle class="cls-7" cx="110.51" cy="6.82" r="1.5"/><circle class="cls-7" cx="112.51" cy="11.82" r="1.5"/><circle class="cls-7" cx="117.5" cy="8.82" r="1.5"/><circle class="cls-7" cx="112.51" cy="18.82" r="1.5"/><circle class="cls-7" cx="118.5" cy="15.82" r="1.5"/><ellipse class="cls-15" cx="102.03" cy="11.32" rx="9.98" ry="4.5"/><path class="cls-16" d="M113.85,47.4l9.29-4.66A16.19,16.19,0,0,1,137,42.41L177.1,60.2a2.46,2.46,0,0,1,.11,4.45l-9,4.51a15,15,0,0,1-12.76.3l-41.52-18.4A2,2,0,0,1,113.85,47.4Z"/><polygon class="cls-7" points="129.97 65.73 129.48 58.82 150.43 47.82 160.41 52.82 140.45 63.82 139.46 74.82 129.97 65.73"/><line class="cls-17" x1="122.49" y1="12.82" x2="122.49" y2="19.82"/><line class="cls-3" x1="3.73" y1="64.82" x2="3.82" y2="55.82"/></svg>