<?xml version="1.0" standalone="no"?>
<!DOCTYPE svg PUBLIC "-//W3C//DTD SVG 20010904//EN"
 "http://www.w3.org/TR/2001/REC-SVG-20010904/DTD/svg10.dtd">
<svg version="1.0" xmlns="http://www.w3.org/2000/svg"
 width="1136.000000pt" height="1136.000000pt" viewBox="0 0 1136.000000 1136.000000"
 preserveAspectRatio="xMidYMid meet">
<g transform="translate(0.000000,1136.000000) scale(0.100000,-0.100000)"
fill="#000000" stroke="none">
<path d="M5385 9314 c-139 -17 -159 -20 -300 -54 -50 -12 -122 -35 -160 -50
-100 -42 -154 -67 -177 -82 -14 -10 -31 -18 -37 -18 -6 0 -11 -4 -11 -8 0 -4
-14 -16 -31 -26 -17 -10 -52 -39 -78 -65 -43 -43 -184 -120 -323 -177 -27 -10
-48 -22 -48 -26 0 -5 -5 -8 -12 -8 -11 0 -21 -4 -249 -113 -76 -36 -168 -80
-205 -97 -38 -18 -105 -49 -149 -70 -195 -93 -277 -130 -286 -130 -5 0 -9 -4
-9 -10 0 -5 -5 -10 -11 -10 -11 0 -55 -20 -209 -93 -185 -88 -316 -150 -390
-184 -41 -20 -118 -56 -170 -81 -177 -84 -265 -125 -270 -127 -3 -1 -35 -16
-73 -33 -37 -18 -72 -32 -77 -32 -6 0 -10 -4 -10 -10 0 -5 -4 -10 -9 -10 -5 0
-43 -16 -84 -35 -41 -19 -80 -35 -86 -35 -6 0 -11 -3 -11 -7 0 -5 -21 -17 -48
-27 -26 -11 -110 -50 -187 -87 -373 -178 -484 -229 -489 -226 -2 1 -12 -6 -22
-15 -11 -9 -22 -17 -27 -17 -8 -1 -64 -26 -212 -97 -55 -26 -102 -48 -105 -49
-20 -3 -148 -76 -209 -118 -88 -61 -212 -180 -267 -257 -38 -53 -114 -177
-114 -186 0 -2 -9 -23 -19 -47 -27 -58 -60 -176 -67 -234 -3 -26 -7 -217 -9
-423 -2 -206 -7 -494 -10 -640 -12 -510 -12 -602 1 -659 41 -175 136 -287 320
-377 61 -29 116 -54 123 -54 6 0 11 -4 11 -10 0 -5 6 -10 13 -10 6 0 44 -15
82 -34 84 -41 228 -109 350 -166 50 -23 133 -63 185 -88 171 -81 225 -105 233
-104 4 1 7 -3 7 -10 0 -6 3 -8 6 -5 4 4 19 -2 33 -12 14 -10 37 -22 51 -26 14
-4 79 -34 145 -67 66 -32 121 -58 123 -58 1 0 50 -23 110 -51 147 -71 286
-135 294 -138 4 -1 43 -19 85 -41 43 -21 107 -52 143 -68 36 -17 115 -53 175
-82 61 -29 146 -69 190 -90 163 -77 253 -119 360 -170 61 -29 148 -70 195 -92
84 -39 148 -70 345 -163 55 -26 136 -65 180 -85 104 -49 259 -122 360 -170 44
-21 121 -57 170 -80 50 -23 131 -61 180 -85 50 -23 134 -63 188 -89 53 -25
102 -46 107 -46 6 0 18 -4 28 -10 16 -9 57 -26 74 -29 4 -1 27 -9 50 -17 24
-9 54 -18 68 -20 14 -3 36 -9 50 -13 14 -5 54 -14 90 -20 36 -6 79 -13 95 -16
105 -18 295 -23 430 -12 76 7 99 10 163 22 15 3 43 8 62 11 19 2 49 9 65 14
131 40 236 75 270 91 56 25 290 132 350 160 28 12 53 22 58 21 4 -1 7 3 7 9 0
5 4 8 9 5 5 -3 14 1 21 9 7 8 18 15 25 15 6 0 49 18 94 40 45 22 84 40 86 40
3 0 53 23 112 51 149 71 234 111 328 154 44 20 107 50 140 65 33 15 99 46 148
68 48 23 90 41 93 41 2 0 21 9 42 20 42 22 175 85 182 87 9 1 184 83 211 99
14 8 29 12 33 8 3 -3 6 -1 6 5 0 7 4 12 10 12 10 0 85 35 298 136 62 30 115
54 118 54 4 0 126 57 284 133 47 22 90 42 95 43 6 1 64 28 130 59 66 31 149
70 185 87 36 17 97 45 135 63 84 39 179 83 295 137 47 21 97 46 112 54 14 7
33 14 42 14 9 0 16 5 16 10 0 6 5 10 11 10 11 0 28 8 234 105 55 26 125 59
155 72 30 14 87 40 125 58 69 32 148 68 213 96 17 8 32 17 32 21 0 5 6 8 14 8
17 0 102 45 146 78 45 33 129 115 130 125 0 4 9 17 20 29 33 35 97 179 110
248 17 86 21 223 34 1220 2 139 9 253 16 279 22 82 -1 195 -53 257 -23 29 -99
99 -115 108 -10 5 -19 12 -22 15 -23 27 -185 110 -805 411 -328 159 -340 165
-343 173 -2 4 -9 7 -15 7 -7 0 -50 19 -97 42 -47 23 -88 41 -92 40 -5 -1 -8 1
-8 6 0 4 -15 13 -32 21 -18 8 -134 63 -258 124 -450 219 -495 241 -502 241 -4
1 -13 7 -19 14 -7 6 -16 12 -20 12 -4 0 -114 52 -244 115 -144 70 -238 122
-241 133 -19 55 -58 123 -98 169 -47 52 -165 137 -217 155 -16 5 -29 14 -29
19 0 5 -7 9 -15 9 -8 0 -34 9 -58 19 -65 30 -209 71 -332 95 -47 9 -138 20
-254 31 -35 3 -71 11 -79 18 -8 6 -17 11 -18 10 -2 -2 -96 42 -208 98 -194 95
-204 101 -200 125 5 25 -14 94 -26 94 -3 0 -7 11 -8 24 -4 56 -75 178 -125
214 -10 8 -25 22 -35 31 -79 83 -343 195 -557 236 -38 7 -100 17 -130 21 -16
1 -48 6 -70 9 -76 12 -430 11 -530 -1z"/>
</g>
</svg>
